<svg width="41" height="42" viewBox="0 0 41 42" fill="none" xmlns="http://www.w3.org/2000/svg">
<path d="M33.3426 1H7.65738C6.99636 1 6.38257 1.28329 5.91041 1.75545L1 7.04359H3.1719V41.1332C3.1719 41.2748 3.26633 41.3693 3.40798 41.4165H20.0278H37.8753C38.0642 41.4165 38.1586 41.2748 38.1586 41.1332V7.04359H40L35.0896 1.75545C34.6174 1.28329 34.0036 1 33.3426 1ZM37.5448 23.6634H20.3111V7.04359H37.5448V23.6634ZM37.5448 24.2772V40.8027H20.3111V24.2772H37.5448ZM19.6973 23.6634H3.73849V7.04359H19.6973V23.6634ZM19.6973 24.2772V40.8027H3.73849V24.2772H19.6973ZM2.36925 6.42978L6.14649 2.36925C6.57143 1.89709 7.23244 1.6138 7.89345 1.6138H33.0593C33.7203 1.6138 34.3341 1.89709 34.8063 2.36925L38.5835 6.42978H2.36925Z" fill="#C4C4C4" stroke="#C4C4C4" stroke-width="0.75" stroke-miterlimit="10"/>
<path d="M10.2543 17.1472V20.0274C10.2543 20.6884 10.7736 21.2078 11.4346 21.2078C12.0957 21.2078 12.615 20.6884 12.615 20.0274V17.1472C13.1344 17.0056 13.5121 16.5807 13.5121 16.0141V13.8894C13.5121 13.2284 12.9928 12.709 12.3318 12.709H10.5848C9.92376 12.709 9.40439 13.2284 9.40439 13.8894V16.0141C9.40439 16.5807 9.78211 17.0528 10.2543 17.1472ZM12.1429 20.0746C12.1429 20.4523 11.8124 20.7828 11.4346 20.7828C11.0569 20.7828 10.7264 20.4523 10.7264 20.0746V17.1945H12.1429V20.0746ZM9.87654 13.8894C9.87654 13.5116 10.2071 13.1811 10.5848 13.1811H12.379C12.7567 13.1811 13.0872 13.5116 13.0872 13.8894V16.0141C13.0872 16.3918 12.7567 16.7223 12.379 16.7223H10.5848C10.2071 16.7223 9.87654 16.3918 9.87654 16.0141V13.8894Z" fill="#C4C4C4" stroke="#C4C4C4" stroke-width="0.5" stroke-miterlimit="10"/>
<path d="M11.4346 12.3788C12.1901 12.3788 12.8511 11.765 12.8511 10.9624C12.8511 10.2069 12.2373 9.5459 11.4346 9.5459C10.6792 9.5459 10.0182 10.1597 10.0182 10.9624C10.0182 11.765 10.6792 12.3788 11.4346 12.3788ZM11.4346 10.0181C11.954 10.0181 12.3789 10.443 12.3789 10.9624C12.3789 11.4817 11.954 11.9067 11.4346 11.9067C10.9153 11.9067 10.4903 11.4817 10.4903 10.9624C10.4903 10.443 10.9153 10.0181 11.4346 10.0181Z" fill="#C4C4C4" stroke="#C4C4C4" stroke-width="0.5" stroke-miterlimit="10"/>
<path d="M28.5266 35.1367V37.2142C28.5266 37.828 29.046 38.3473 29.6598 38.3473C30.2736 38.3473 30.793 37.828 30.793 37.2142V35.1367C31.3123 34.9478 31.8317 34.2868 31.8317 33.7674L31.5484 31.265C31.5484 30.6512 31.0763 30.1318 30.4625 30.1318H28.8571C28.2433 30.1318 27.7712 30.6512 27.7712 31.265L27.4879 33.7674V33.8146C27.4879 34.2868 28.0073 34.9006 28.5266 35.1367ZM30.368 37.2142C30.368 37.5919 30.0847 37.8752 29.707 37.8752C29.3293 37.8752 29.046 37.5919 29.046 37.2142V35.2311H30.4153V37.2142H30.368ZM28.2433 31.265C28.2433 30.8873 28.5266 30.5568 28.8571 30.5568H30.4625C30.793 30.5568 31.0763 30.8401 31.0763 31.2178L31.3596 33.7202C31.3596 34.0979 30.793 34.6645 30.4625 34.6645H28.8571C28.5266 34.6645 27.96 34.0979 27.96 33.7202L28.2433 31.265Z" fill="#C4C4C4" stroke="#C4C4C4" stroke-width="0.5" stroke-miterlimit="10"/>
<path d="M28.1489 29.9426L28.8571 29.5177C29.0932 29.7066 29.3765 29.801 29.707 29.801C30.0375 29.801 30.3208 29.7066 30.5569 29.5177L31.2651 29.9426C31.3595 29.9899 31.5012 29.9899 31.5956 29.8482C31.6428 29.7538 31.6428 29.6121 31.5012 29.5177L30.8874 29.14C31.029 28.9511 31.0763 28.6678 31.0763 28.4318C31.0763 27.6763 30.4625 27.0625 29.707 27.0625C28.9516 27.0625 28.3378 27.6763 28.3378 28.4318C28.3378 28.715 28.4322 28.9511 28.5266 29.14L27.9128 29.5177C27.8184 29.5649 27.7712 29.7066 27.8184 29.8482C27.9128 29.9426 28.0545 29.9899 28.1489 29.9426ZM29.6598 27.5347C30.1792 27.5347 30.5569 27.9596 30.5569 28.4318C30.5569 28.9511 30.1319 29.3288 29.6598 29.3288C29.1876 29.3288 28.7627 28.9039 28.7627 28.4318C28.7627 27.9596 29.1876 27.5347 29.6598 27.5347Z" fill="#C4C4C4" stroke="#C4C4C4" stroke-width="0.5" stroke-miterlimit="10"/>
</svg>
