<svg width="35" height="44" viewBox="0 0 35 44" fill="none" xmlns="http://www.w3.org/2000/svg">
<path d="M5.80048 40.2337C5.80048 40.2337 5.75005 40.2337 5.80048 40.2337H5.24576C4.03547 40.2337 2.82517 39.679 2.01831 38.8217C1.31231 38.0148 0.959306 37.0567 1.06016 36.0481L3.63204 9.9764C3.63204 9.82512 3.78332 9.67383 3.98504 9.67383H26.7285C26.9302 9.67383 27.031 9.82512 27.0815 9.9764L27.384 12.8004C27.384 12.9013 27.3336 13.0021 27.2832 13.0526C27.2327 13.103 27.1319 13.1534 27.031 13.1534H8.57406L6.05262 38.9226C6.00219 39.2251 6.05262 39.4773 6.10305 39.7799C6.10305 39.8303 6.10305 39.8303 6.10305 39.8807C6.10305 40.0824 5.95176 40.2337 5.80048 40.2337ZM4.23718 10.279L1.71574 36.0481C1.61488 36.855 1.91745 37.6618 2.5226 38.3174C3.2286 39.0738 4.23718 39.5277 5.24576 39.5277H5.39705C5.34662 39.326 5.34662 39.0738 5.39705 38.8217L7.96892 12.75C7.96892 12.5987 8.1202 12.4474 8.32192 12.4474H26.6276L26.4259 10.279H4.23718Z" fill="#C4C4C4" stroke="#C4C4C4" stroke-width="0.75" stroke-miterlimit="10"/>
<path d="M29.7038 43.0579H9.53223C8.32194 43.0579 7.11164 42.5032 6.30478 41.6459C5.59878 40.8391 5.24577 39.8809 5.34663 38.8723L7.9185 12.8006C7.9185 12.6493 8.06979 12.498 8.27151 12.498H31.0149C31.2166 12.498 31.3679 12.6493 31.3679 12.8006L33.9398 38.8723C34.0406 39.8809 33.6876 40.8895 32.9816 41.6459C32.1244 42.5032 30.9141 43.0579 29.7038 43.0579ZM8.57408 13.1536L6.05264 38.9228C5.95178 39.7296 6.25435 40.5365 6.8595 41.1921C7.5655 41.9485 8.57408 42.4024 9.58266 42.4024H29.7542C30.7628 42.4024 31.7714 41.9485 32.4774 41.1921C33.0825 40.5365 33.3346 39.7296 33.2338 38.9228L30.7123 13.1536H8.57408Z" fill="#C4C4C4" stroke="#C4C4C4" stroke-width="0.75" stroke-miterlimit="10"/>
<path d="M8.27149 13.1535C8.22106 13.1535 8.1202 13.1535 8.06977 13.1031L3.73289 10.2791C3.5816 10.1782 3.53117 9.97648 3.63203 9.8252C3.73289 9.67391 3.9346 9.62349 4.08589 9.72435L8.42277 12.5484C8.57406 12.6492 8.62449 12.8509 8.52363 13.0022C8.52363 13.1031 8.37234 13.1535 8.27149 13.1535Z" fill="#C4C4C4" stroke="#C4C4C4" stroke-width="0.75" stroke-miterlimit="10"/>
<path d="M31.0149 13.1535C30.9645 13.1535 30.8636 13.1535 30.8132 13.1031L26.4763 10.2791C26.325 10.1782 26.2746 9.97648 26.3754 9.8252C26.4763 9.67391 26.678 9.62349 26.8293 9.72435L31.1662 12.5484C31.3175 12.6492 31.3679 12.8509 31.267 13.0022C31.2166 13.1031 31.1158 13.1535 31.0149 13.1535Z" fill="#C4C4C4" stroke="#C4C4C4" stroke-width="0.75" stroke-miterlimit="10"/>
<path d="M21.8873 10.2789H11.1459C10.9442 10.2789 10.7929 10.1276 10.7929 9.92591V6.7489C10.7929 3.57188 13.3648 1 16.5418 1C19.7188 1 22.2907 3.57188 22.2907 6.7489V9.92591C22.2403 10.1276 22.089 10.2789 21.8873 10.2789ZM11.4485 9.62334H21.5343V6.79932C21.5343 4.02573 19.265 1.75643 16.4914 1.75643C13.7178 1.75643 11.4485 4.02573 11.4485 6.79932V9.62334Z" fill="#C4C4C4" stroke="#C4C4C4" stroke-width="0.75" stroke-miterlimit="10"/>
<path d="M25.0139 13.1533C24.8121 13.1533 24.6609 13.002 24.6609 12.8003V9.67369C24.6609 6.9001 22.3916 4.63081 19.618 4.63081C16.8444 4.63081 14.5751 6.9001 14.5751 9.67369V12.8003C14.5751 13.002 14.4238 13.1533 14.2221 13.1533C14.0204 13.1533 13.8691 13.002 13.8691 12.8003V9.67369C13.8691 6.49667 16.4409 3.9248 19.618 3.9248C22.795 3.9248 25.3669 6.49667 25.3669 9.67369V12.8003C25.3669 13.002 25.2156 13.1533 25.0139 13.1533Z" fill="#C4C4C4" stroke="#C4C4C4" stroke-width="0.75" stroke-miterlimit="10"/>
</svg>
