<svg width="45" height="41" viewBox="0 0 45 41" fill="none" xmlns="http://www.w3.org/2000/svg">
<path d="M35.0955 39.9539C34.8648 39.9539 34.6341 39.7695 34.6341 39.4929C34.6341 39.2163 34.8186 39.0319 35.0955 39.0319H37.2639V26.8617H7.50535V39.0319H9.85837C10.0891 39.0319 10.3197 39.2163 10.3197 39.4929C10.3197 39.7695 10.1352 39.9539 9.85837 39.9539H7.04398C6.81329 39.9539 6.58261 39.7695 6.58261 39.4929V26.8617H4.22961C3.99893 26.8617 3.76824 26.6773 3.76824 26.4007V22.7128H1.46137C1.23069 22.7128 1 22.5284 1 22.2518C1 22.0213 1.18455 21.7908 1.46137 21.7908H9.48925L10.5043 16.305C10.6888 15.2908 11.5655 14.5532 12.6266 14.5532H14.0569L14.7028 4.13475C14.7951 2.38298 16.2714 1 18.0247 1H26.9753C28.7285 1 30.2049 2.38298 30.2972 4.13475L30.9431 14.5993H32.3734C33.4345 14.5993 34.3111 15.3369 34.4957 16.3511L35.5107 21.8369H43.5386C43.7693 21.8369 44 22.0213 44 22.2979C44 22.5284 43.8154 22.7589 43.5386 22.7589H41.2318V26.4468C41.2318 26.6773 41.0472 26.9078 40.7704 26.9078H38.3712V39.539C38.3712 39.7695 38.1867 40 37.9099 40H35.0955V39.9539ZM4.64483 25.9858H40.1245V22.7589H4.64483V25.9858ZM31.2661 21.8369H34.4034L33.4345 16.4894C33.3423 15.8901 32.8348 15.5213 32.235 15.5213H30.897L31.2661 21.8369ZM17.9785 2.01418C16.7328 2.01418 15.7178 2.98227 15.6255 4.22695L14.5644 21.883H30.3433L29.2822 4.22695C29.236 2.98227 28.1749 2.01418 26.9292 2.01418H17.9785ZM12.6727 15.5213C12.073 15.5213 11.5655 15.9362 11.4732 16.5355L10.4582 21.883H13.5955L14.0107 15.5213H12.6727ZM26.1448 39.8617C25.9142 39.8617 25.6835 39.6773 25.6835 39.4007V37.0957H23.1459V39.3085C23.0536 39.5851 22.823 39.8617 22.5461 39.8617C22.3155 39.8617 22.0848 39.6773 22.0848 39.4007V37.0957H19.5472V39.4007C19.5472 39.6312 19.3627 39.8617 19.0858 39.8617C18.8552 39.8617 18.6245 39.6773 18.6245 39.4007V36.6348C18.6245 36.4043 18.809 36.1738 19.0858 36.1738H22.1309V30.3652H13.5955C13.3648 30.3652 13.1341 30.1808 13.1341 29.9043C13.1341 29.6738 13.3187 29.4433 13.5955 29.4433H31.6813C31.912 29.4433 32.1427 29.6277 32.1427 29.9043C32.1427 30.1348 31.9582 30.3652 31.6813 30.3652H23.1459V36.2199H26.191C26.4217 36.2199 26.6523 36.4043 26.6523 36.6809V39.4468C26.5601 39.6773 26.3755 39.8617 26.1448 39.8617ZM18.4399 9.80497C18.2092 9.80497 17.9785 9.62057 17.9785 9.34397C17.9785 9.11347 18.1631 8.88298 18.4399 8.88298H26.2371C26.4678 8.88298 26.6985 9.06738 26.6985 9.34397C26.6985 9.57447 26.514 9.80497 26.2371 9.80497H18.4399Z" fill="#C4C4C4" stroke="#C4C4C4" stroke-width="0.5" stroke-miterlimit="10"/>
</svg>
