<svg width="43" height="43" viewBox="0 0 43 43" fill="none" xmlns="http://www.w3.org/2000/svg">
<path d="M1.18971 42.0441C1.0742 42.0441 0.997192 41.9671 0.997192 41.8516C0.997192 41.7361 1.0742 41.6591 1.18971 41.6591H1.61324V31.7253H1.18971C1.0742 31.7253 0.997192 31.6483 0.997192 31.5328C0.997192 31.4173 1.0742 31.3403 1.18971 31.3403H4.88599V28.1831L4.61647 28.1446C3.19186 27.9136 2.19079 26.797 2.19079 25.4879C2.19079 24.9488 2.34479 24.4483 2.69132 23.9862L2.80684 23.8322L2.76833 23.6782C2.69132 23.4472 2.65281 23.2162 2.65281 22.9467C2.65281 22.4846 2.80683 22.0611 3.07635 21.6761L3.15336 21.5606L3.11485 21.4066C3.03785 21.214 3.03784 21.0215 3.03784 20.829C3.03784 19.7509 4.00042 18.8654 5.15551 18.8654C5.42503 18.8654 5.65604 18.9039 5.92556 18.9809L6.15658 19.0579L6.31059 18.8269C6.31059 18.7884 6.3491 18.7884 6.3491 18.7499C6.3491 18.7114 6.3876 18.7113 6.3876 18.6728L6.50311 18.5188L6.46461 18.3648C6.38761 18.0953 6.3491 17.8643 6.3491 17.5948C6.3491 16.2087 7.5812 15.0536 9.08281 15.0536C10.5459 15.0536 11.7395 16.0931 11.8165 17.4793C11.8165 17.5178 11.8165 17.5563 11.8165 17.5948C11.8165 17.8643 11.778 18.1338 11.6625 18.3648L11.5855 18.5188L11.701 18.6728C12.086 19.1734 12.2785 19.7509 12.2785 20.367C12.2785 20.7135 12.2015 21.0215 12.086 21.3681L12.009 21.5221L12.163 21.7146C12.5866 22.2921 12.7791 22.9467 12.7791 23.6397C12.7791 25.3724 11.393 26.874 9.54485 27.105L9.27532 27.1435V31.3018H17.1684V28.3371L16.8989 28.2986C15.5898 28.1061 14.6272 27.028 14.6272 25.7959C14.6272 25.2954 14.7812 24.7948 15.0893 24.4098L15.2048 24.2558L15.1663 24.1018C15.0893 23.8707 15.0508 23.6782 15.0508 23.4472C15.0508 23.0237 15.1663 22.6001 15.4358 22.2536L15.5128 22.1381L15.4743 21.9841C15.4358 21.8301 15.3973 21.6376 15.3973 21.4836C15.3973 20.444 16.2829 19.5969 17.3994 19.5969C18.4775 19.5969 19.3631 20.367 19.4016 21.3681C19.4016 21.4066 19.4016 21.4451 19.4016 21.4451C19.4016 21.6376 19.3631 21.7916 19.3246 21.9456L19.2861 22.0996L19.3631 22.2151C19.6326 22.5616 19.7481 22.9852 19.7481 23.4087C19.7481 23.6397 19.7096 23.8707 19.6326 24.0633L19.5941 24.2173L19.7096 24.3713C20.0176 24.7948 20.1717 25.2568 20.1717 25.7574C20.1717 26.9895 19.2091 28.0676 17.9 28.2601L17.6305 28.2986V31.2633H22.4048V4.11874H21.6348C21.5193 4.11874 21.4423 4.04173 21.4423 3.92623V1.19251C21.4423 1.07701 21.5193 1 21.6348 1H41.8103C41.8488 1 41.9258 1.0385 41.9643 1.0385C42.0028 1.077 42.0028 1.11551 42.0028 1.19251V3.92623C42.0028 4.04173 41.9258 4.11874 41.8103 4.11874H41.1558V41.5821H41.8103C41.9258 41.5821 42.0028 41.6591 42.0028 41.7746C42.0028 41.8901 41.9258 41.9671 41.8103 41.9671H1.18971V42.0441ZM31.6455 32.5339C32.9931 32.5339 34.1097 33.6505 34.1097 34.9981V41.6976H40.7707V4.23424H22.7514V41.6976H29.1813V34.9981C29.1813 33.6505 30.2594 32.5339 31.6455 32.5339ZM31.6455 32.9189C30.4904 32.9189 29.5664 33.843 29.5664 34.9981V41.6976H33.6862V34.9981C33.6862 33.843 32.7621 32.9189 31.6455 32.9189ZM22.3278 41.6591V34.5361H1.95977V41.6591H22.3278ZM20.1332 34.151H22.3278V31.7253H20.1332V34.151ZM17.1299 34.151H19.7481V31.7253H17.1299V34.151ZM14.0882 34.151H16.7064V31.7253H14.0882V34.151ZM11.085 34.151H13.7032V31.7253H11.085V34.151ZM8.04323 34.151H10.6614V31.7253H8.04323V34.151ZM5.0015 34.151H7.6197V31.7253H5.0015V34.151ZM1.99827 34.151H4.61647V31.7253H1.99827V34.151ZM7.35018 27.105C6.88814 27.6825 6.2336 28.0291 5.50204 28.1446L5.23252 28.1831V31.3403H8.73629V27.182L8.46676 27.1435C8.19724 27.105 7.96622 27.0665 7.73521 26.9895L7.50419 26.9125L7.35018 27.105ZM17.3609 19.9434C16.4754 19.9434 15.7438 20.598 15.7438 21.4451C15.7438 21.6761 15.7823 21.8686 15.8978 22.0611C15.9363 22.1381 15.9363 22.2151 15.8593 22.2921C15.5513 22.6386 15.3973 23.0237 15.3973 23.4472C15.3973 23.7167 15.4743 23.9862 15.5898 24.2173C15.6283 24.2943 15.6283 24.3713 15.5513 24.4483C15.2048 24.8333 15.0123 25.3339 15.0123 25.8344C15.0123 27.028 16.0518 27.9906 17.3609 27.9906C18.67 27.9906 19.7096 27.028 19.7096 25.8344C19.7096 25.4109 19.5556 24.9873 19.3246 24.6408C19.2861 24.5638 19.2476 24.5253 19.1706 24.4483C19.1321 24.3713 19.0936 24.2943 19.1321 24.2173C19.2476 23.9862 19.3246 23.7167 19.3246 23.4472C19.3246 23.0237 19.1706 22.6001 18.8626 22.2921C18.8241 22.2151 18.7855 22.1381 18.824 22.0611C18.9396 21.8686 18.9781 21.6376 18.9781 21.4451V21.3681C18.9011 20.598 18.208 19.9434 17.3609 19.9434ZM5.04 19.2504C4.07743 19.2504 3.30737 19.9819 3.30737 20.829C3.30737 21.06 3.34587 21.291 3.46138 21.4836C3.49988 21.5606 3.49988 21.6376 3.42287 21.7146C3.11485 22.0611 2.92234 22.4846 2.92234 22.9467C2.92234 23.2162 2.99935 23.4857 3.11485 23.7552C3.15336 23.8322 3.15335 23.9092 3.07635 23.9862C2.69132 24.4098 2.4988 24.9103 2.4988 25.4494C2.4988 26.72 3.61539 27.7595 5.0015 27.7595C5.69455 27.7595 6.3491 27.49 6.81114 27.028L7.11916 26.7585L6.77263 26.5274C5.77156 25.8729 5.15551 24.7948 5.15551 23.6782C5.15551 22.9467 5.38653 22.2921 5.81006 21.6761L5.92556 21.5221L5.84857 21.3681C5.73306 21.06 5.65605 20.7135 5.65605 20.367C5.65605 20.1745 5.69455 19.9434 5.73305 19.6739L5.81006 19.3659L5.50204 19.2889C5.38653 19.2504 5.19401 19.2504 5.04 19.2504ZM8.9288 15.4771C7.6582 15.4771 6.58012 16.4397 6.58012 17.6333C6.58012 17.9413 6.65713 18.2493 6.81114 18.5188C6.84964 18.5958 6.84964 18.6729 6.77263 18.7499C6.3491 19.2119 6.11808 19.8279 6.11808 20.444C6.11808 20.829 6.19509 21.1755 6.3876 21.5221C6.42611 21.5991 6.4261 21.6761 6.3491 21.7531C5.84856 22.2921 5.57904 23.0237 5.57904 23.7167C5.57904 25.4109 7.08066 26.797 8.9288 26.797C10.7769 26.797 12.2785 25.4109 12.2785 23.7167C12.2785 23.1007 12.086 22.5231 11.701 22.0226C11.624 21.9456 11.547 21.8301 11.5085 21.7531C11.47 21.6761 11.4315 21.5991 11.47 21.5221C11.6625 21.1755 11.7395 20.7905 11.7395 20.4055C11.7395 19.7894 11.5085 19.2119 11.085 18.7114C11.0465 18.6343 11.008 18.5573 11.0465 18.4803C11.2005 18.2108 11.2775 17.9028 11.2775 17.5948V17.4793C11.2005 16.3627 10.1609 15.4771 8.9288 15.4771ZM21.7503 3.81071H41.6178V1.46203H21.7503V3.81071Z" fill="#C4C4C4" stroke="#C4C4C4" stroke-miterlimit="10"/>
<path d="M25.1385 23.8322C25.023 23.8322 24.946 23.7552 24.946 23.6396V21.214C24.946 20.5209 25.5235 19.9434 26.2166 19.9434C26.9096 19.9434 27.4872 20.5209 27.4872 21.214V23.6396C27.4872 23.7552 27.4102 23.8322 27.2947 23.8322H25.1385ZM26.2166 20.3284C25.716 20.3284 25.331 20.7134 25.331 21.214V23.4471H27.1021V21.214C27.1021 20.7134 26.7171 20.3284 26.2166 20.3284Z" fill="#C4C4C4" stroke="#C4C4C4" stroke-miterlimit="10"/>
<path d="M30.5289 30.0304C30.4134 30.0304 30.3364 29.9534 30.3364 29.8379V27.4122C30.3364 26.7192 30.9139 26.1416 31.607 26.1416C32.3 26.1416 32.8776 26.7192 32.8776 27.4122V29.8379C32.8776 29.9534 32.8006 30.0304 32.6851 30.0304H30.5289ZM31.6455 26.5266C31.145 26.5266 30.7599 26.9117 30.7599 27.4122V29.6454H32.5311V27.4122C32.5311 26.9117 32.1075 26.5266 31.6455 26.5266Z" fill="#C4C4C4" stroke="#C4C4C4" stroke-miterlimit="10"/>
<path d="M30.5289 17.5949C30.4134 17.5949 30.3364 17.5178 30.3364 17.4023V14.9766C30.3364 14.2836 30.9139 13.7061 31.607 13.7061C32.3 13.7061 32.8776 14.2836 32.8776 14.9766V17.4023C32.8776 17.5178 32.8006 17.5949 32.6851 17.5949H30.5289ZM31.6455 14.0911C31.145 14.0911 30.7599 14.4761 30.7599 14.9766V17.2098H32.5311V14.9766C32.5311 14.4761 32.1075 14.0911 31.6455 14.0911Z" fill="#C4C4C4" stroke="#C4C4C4" stroke-miterlimit="10"/>
<path d="M35.9579 23.8322C35.8424 23.8322 35.7654 23.7552 35.7654 23.6396V21.214C35.7654 20.5209 36.3429 19.9434 37.036 19.9434C37.729 19.9434 38.3066 20.5209 38.3066 21.214V23.6396C38.3066 23.7552 38.2296 23.8322 38.1141 23.8322H35.9579ZM36.1504 23.4471H37.9215V21.214C37.9215 20.7134 37.5365 20.3284 37.036 20.3284C36.5354 20.3284 36.1504 20.7134 36.1504 21.214V23.4471Z" fill="#C4C4C4" stroke="#C4C4C4" stroke-miterlimit="10"/>
<path d="M25.1385 11.2794C25.023 11.2794 24.946 11.2024 24.946 11.0869V8.66122C24.946 7.96816 25.5235 7.39062 26.2166 7.39062C26.9096 7.39062 27.4872 7.96816 27.4872 8.66122V11.0869C27.4872 11.2024 27.4102 11.2794 27.2947 11.2794H25.1385ZM26.2166 7.81415C25.716 7.81415 25.331 8.19918 25.331 8.69972V10.9329H27.1021V8.69972C27.1021 8.19918 26.7171 7.81415 26.2166 7.81415Z" fill="#C4C4C4" stroke="#C4C4C4" stroke-miterlimit="10"/>
<path d="M35.9579 11.2794C35.8424 11.2794 35.7654 11.2024 35.7654 11.0869V8.66122C35.7654 7.96816 36.3429 7.39062 37.036 7.39062C37.729 7.39062 38.3066 7.96816 38.3066 8.66122V11.0869C38.3066 11.2024 38.2296 11.2794 38.1141 11.2794H35.9579ZM36.1504 10.8944H37.9215V8.66122C37.9215 8.16068 37.5365 7.77565 37.036 7.77565C36.5354 7.77565 36.1504 8.16068 36.1504 8.66122V10.8944Z" fill="#C4C4C4" stroke="#C4C4C4" stroke-miterlimit="10"/>
<path d="M6.96516 2.69386C6.84965 2.69386 6.77264 2.61685 6.77264 2.50134V1.30775C6.77264 1.19224 6.84965 1.11523 6.96516 1.11523C7.08067 1.11523 7.15767 1.19224 7.15767 1.30775V2.50134C7.15767 2.57835 7.08067 2.69386 6.96516 2.69386Z" fill="#C4C4C4" stroke="#C4C4C4" stroke-miterlimit="10"/>
<path d="M5.15552 3.07932C5.07851 3.07932 5.0015 3.04082 4.963 2.96381L4.46247 1.88573C4.42396 1.77022 4.46246 1.65471 4.57797 1.61621C4.61647 1.61621 4.61648 1.61621 4.65498 1.61621C4.73199 1.61621 4.80899 1.65472 4.8475 1.73172L5.34803 2.8483C5.38653 2.96381 5.34804 3.07933 5.23253 3.11783C5.19402 3.07933 5.15552 3.07932 5.15552 3.07932Z" fill="#C4C4C4" stroke="#C4C4C4" stroke-miterlimit="10"/>
<path d="M3.6154 4.19554C3.5769 4.19554 3.5384 4.19554 3.4999 4.15704L2.61433 3.34848C2.53733 3.27148 2.53733 3.15596 2.61433 3.07896C2.65284 3.04045 2.72984 3.00195 2.76834 3.00195C2.80685 3.00195 2.84534 3.00195 2.88385 3.04045L3.76942 3.84902C3.80793 3.88752 3.84642 3.92602 3.84642 3.96452C3.84642 4.00302 3.84642 4.08004 3.80792 4.11854C3.73091 4.15704 3.6539 4.19554 3.6154 4.19554Z" fill="#C4C4C4" stroke="#C4C4C4" stroke-miterlimit="10"/>
<path d="M2.6913 5.81345C2.6528 5.81345 2.6528 5.81345 2.6143 5.81345L1.45921 5.42842C1.42071 5.42842 1.3822 5.38991 1.3437 5.3129C1.30519 5.2744 1.30519 5.1974 1.3437 5.15889C1.3822 5.08189 1.45921 5.00488 1.53621 5.00488C1.57471 5.00488 1.57472 5.00488 1.61322 5.00488L2.76831 5.38991C2.80681 5.38991 2.84531 5.42841 2.88381 5.50542C2.92232 5.54392 2.92232 5.62093 2.88381 5.65944C2.84531 5.77495 2.76831 5.81345 2.6913 5.81345Z" fill="#C4C4C4" stroke="#C4C4C4" stroke-miterlimit="10"/>
<path d="M1.26667 7.81541C1.15116 7.81541 1.07416 7.7384 1.07416 7.62289C1.07416 7.58439 1.07415 7.50738 1.11265 7.46888C1.15115 7.43038 1.18966 7.39188 1.22817 7.39188L2.42176 7.27637C2.53727 7.27637 2.61428 7.35337 2.61428 7.46888C2.61428 7.58439 2.53726 7.6614 2.46025 7.6999L1.26667 7.81541Z" fill="#C4C4C4" stroke="#C4C4C4" stroke-miterlimit="10"/>
<path d="M2.03675 10.087C1.95975 10.087 1.92123 10.0485 1.88273 10.01C1.84423 9.9715 1.84424 9.8945 1.84424 9.856C1.84424 9.81749 1.88273 9.77898 1.92124 9.74048L2.96082 9.12444C2.99932 9.12444 3.03782 9.08594 3.07633 9.08594C3.15333 9.08594 3.19183 9.12444 3.23033 9.20144C3.26884 9.23994 3.26884 9.31695 3.26884 9.35545C3.26884 9.39395 3.23034 9.43246 3.19184 9.47097L2.15226 10.087C2.07525 10.0485 2.03675 10.087 2.03675 10.087Z" fill="#C4C4C4" stroke="#C4C4C4" stroke-miterlimit="10"/>
<path d="M3.6154 11.8574C3.57689 11.8574 3.5384 11.8574 3.49989 11.8189C3.46139 11.7804 3.42288 11.7419 3.42288 11.7034C3.42288 11.6649 3.42288 11.5879 3.46139 11.5493L4.15445 10.5868C4.19295 10.5483 4.23145 10.5098 4.30846 10.5098C4.34696 10.5098 4.38546 10.5098 4.42396 10.5483C4.46246 10.5868 4.50097 10.6253 4.50097 10.6638C4.50097 10.7023 4.50097 10.7793 4.46247 10.8178L3.76942 11.7804C3.73091 11.8189 3.6924 11.8574 3.6154 11.8574Z" fill="#C4C4C4" stroke="#C4C4C4" stroke-miterlimit="10"/>
<path d="M5.81007 12.8208H5.77156C5.65605 12.7823 5.61755 12.7053 5.61755 12.5898L5.84857 11.3962C5.84857 11.3192 5.96408 11.2422 6.04109 11.2422H6.07959C6.1951 11.2807 6.2336 11.3577 6.2336 11.4732L6.00258 12.6668C5.96408 12.7438 5.88707 12.8208 5.81007 12.8208Z" fill="#C4C4C4" stroke="#C4C4C4" stroke-miterlimit="10"/>
<path d="M8.15874 12.8208C8.08173 12.8208 8.00473 12.7438 7.96623 12.6668L7.73521 11.4732C7.6967 11.3577 7.77371 11.2807 7.88921 11.2422H7.92772C8.00473 11.2422 8.08173 11.3192 8.12023 11.3962L8.35125 12.5898C8.38976 12.7053 8.31275 12.7823 8.19725 12.8208C8.19725 12.8208 8.19724 12.8208 8.15874 12.8208Z" fill="#C4C4C4" stroke="#C4C4C4" stroke-miterlimit="10"/>
<path d="M10.3534 11.8578C10.2764 11.8578 10.2379 11.8193 10.1994 11.7808L9.46785 10.7797C9.39084 10.7027 9.42935 10.5872 9.50635 10.5102C9.54486 10.4717 9.58335 10.4717 9.62186 10.4717C9.69886 10.4717 9.73736 10.5102 9.77587 10.5487L10.4689 11.5113C10.5074 11.5498 10.5074 11.5883 10.5074 11.6653C10.5074 11.7038 10.4689 11.7423 10.4304 11.7808C10.4304 11.8578 10.3919 11.8578 10.3534 11.8578Z" fill="#C4C4C4" stroke="#C4C4C4" stroke-miterlimit="10"/>
<path d="M11.932 10.0865C11.8935 10.0865 11.855 10.0865 11.8165 10.048L10.7769 9.4319C10.6999 9.3934 10.6614 9.27789 10.7 9.16238C10.7385 9.08537 10.8155 9.04688 10.854 9.04688C10.8925 9.04688 10.931 9.04688 10.9695 9.08538L12.009 9.70143C12.0476 9.73993 12.086 9.77843 12.086 9.81693C12.086 9.85544 12.0861 9.93244 12.0476 9.97094C12.0861 10.0479 12.009 10.0865 11.932 10.0865Z" fill="#C4C4C4" stroke="#C4C4C4" stroke-miterlimit="10"/>
<path d="M11.47 7.6999C11.4315 7.6999 11.3545 7.66139 11.3545 7.62289C11.316 7.58439 11.316 7.54589 11.316 7.46888C11.316 7.35337 11.393 7.27637 11.5085 7.27637L12.7406 7.39188C12.7791 7.39188 12.8561 7.43038 12.8561 7.46888C12.8946 7.50738 12.8946 7.54589 12.8946 7.62289C12.8946 7.7384 12.8176 7.81541 12.7021 7.81541L11.47 7.6999Z" fill="#C4C4C4" stroke="#C4C4C4" stroke-miterlimit="10"/>
<path d="M11.2775 5.81261C11.2005 5.81261 11.1235 5.7741 11.0849 5.69709C11.0464 5.58158 11.1234 5.46608 11.2005 5.46608L12.3555 5.08105C12.3555 5.08105 12.394 5.08105 12.4326 5.08105C12.5096 5.08105 12.5866 5.11956 12.6251 5.23506C12.6636 5.35057 12.5866 5.42758 12.5096 5.46608L11.3545 5.85111C11.316 5.81261 11.316 5.81261 11.2775 5.81261Z" fill="#C4C4C4" stroke="#C4C4C4" stroke-miterlimit="10"/>
<path d="M10.3534 4.19554C10.3149 4.19554 10.2764 4.19555 10.1994 4.11854C10.1609 4.08004 10.1609 4.04153 10.1609 3.96452C10.1609 3.92602 10.1994 3.84902 10.2379 3.84902L11.1235 3.04045C11.162 3.00195 11.2005 3.00195 11.239 3.00195C11.2775 3.00195 11.316 3.00195 11.393 3.07896C11.47 3.15596 11.47 3.27148 11.393 3.34848L10.5074 4.15704C10.4304 4.15704 10.3919 4.19554 10.3534 4.19554Z" fill="#C4C4C4" stroke="#C4C4C4" stroke-miterlimit="10"/>
<path d="M8.8133 3.07974C8.7748 3.07974 8.77481 3.07974 8.7363 3.07974C8.6978 3.04123 8.65929 3.00273 8.62079 2.96423C8.62079 2.92572 8.62079 2.84872 8.62079 2.81022L9.12133 1.69363C9.15984 1.61662 9.23684 1.57812 9.31385 1.57812C9.35235 1.57812 9.35234 1.57812 9.39085 1.57812C9.42935 1.61663 9.46786 1.65513 9.50636 1.69363C9.50636 1.73213 9.50636 1.80914 9.50636 1.84764L9.00582 2.96423C8.96732 3.04123 8.89031 3.07974 8.8133 3.07974Z" fill="#C4C4C4" stroke="#C4C4C4" stroke-miterlimit="10"/>
</svg>
