<svg width="41" height="41" viewBox="0 0 41 41" fill="none" xmlns="http://www.w3.org/2000/svg">
<path d="M23.1599 18.5758V19.9378H25.1371V18.6197H31.3322V19.9378H33.3093V18.5758C34.1002 18.444 34.6714 17.7849 34.6714 16.9501V15.3244C34.6714 14.7093 34.3199 14.1381 33.7927 13.8745C33.7927 13.8306 33.7487 13.7866 33.7487 13.7866L31.5079 11.458C31.4201 11.3701 31.2443 11.2822 31.1125 11.2822H24.9613C24.8295 11.2822 24.6538 11.3701 24.5659 11.458L22.6766 13.7866C22.6766 13.8306 22.6326 13.8306 22.6326 13.8745C22.1054 14.1381 21.7539 14.7093 21.7539 15.3244V16.9501C21.7539 17.7849 22.369 18.4879 23.1599 18.5758ZM24.5659 19.3227H23.775V18.6197H24.5659V19.3227ZM32.7382 19.3227H31.9473V18.6197H32.7382V19.3227ZM25.0053 11.8973H31.1125L32.87 13.6988H23.5553L25.0053 11.8973ZM22.369 15.3684C22.369 14.7972 22.8523 14.3139 23.4235 14.3139H33.1336C33.7048 14.3139 34.1881 14.7972 34.1881 15.3684V16.994C34.1881 17.5652 33.7048 18.0485 33.1336 18.0485H23.3796C22.8084 18.0485 22.3251 17.5652 22.3251 16.994V15.3684H22.369Z" fill="#C4C4C4" stroke="#C4C4C4" stroke-width="0.5" stroke-miterlimit="10"/>
<path d="M24.9176 15.0166H23.1601V16.4665H24.9176V15.0166ZM24.3025 15.8514H23.7313V15.5878H24.3025V15.8514Z" fill="#C4C4C4" stroke="#C4C4C4" stroke-width="0.5" stroke-miterlimit="10"/>
<path d="M33.3535 15.0166H31.596V16.4665H33.3535V15.0166ZM32.7384 15.8514H32.1672V15.5878H32.7384V15.8514Z" fill="#C4C4C4" stroke="#C4C4C4" stroke-width="0.5" stroke-miterlimit="10"/>
<path d="M23.1599 34.7437V36.1058H25.1371V34.7877H31.3322V36.1058H33.3093V34.7437C34.1002 34.6119 34.6714 33.9529 34.6714 33.1181V31.4924C34.6714 30.8773 34.3199 30.3061 33.7927 30.0425C33.7927 29.9985 33.7487 29.9546 33.7487 29.9546L31.5079 27.6259C31.4201 27.5381 31.2443 27.4502 31.1125 27.4502H24.9613C24.8295 27.4502 24.6538 27.5381 24.5659 27.6259L22.6766 29.9546C22.6766 29.9985 22.6326 29.9985 22.6326 30.0425C22.1054 30.3061 21.7539 30.8773 21.7539 31.4924V33.1181C21.7539 33.9529 22.369 34.6119 23.1599 34.7437ZM24.5659 35.4907H23.775V34.7877H24.5659V35.4907ZM32.7382 35.4907H31.9473V34.7877H32.7382V35.4907ZM25.0053 28.0653H31.1125L32.87 29.8667H23.5553L25.0053 28.0653ZM22.369 31.4924C22.369 30.9212 22.8523 30.4379 23.4235 30.4379H33.1336C33.7048 30.4379 34.1881 30.9212 34.1881 31.4924V33.1181C34.1881 33.6892 33.7048 34.1725 33.1336 34.1725H23.3796C22.8084 34.1725 22.3251 33.6892 22.3251 33.1181V31.4924H22.369Z" fill="#C4C4C4" stroke="#C4C4C4" stroke-width="0.5" stroke-miterlimit="10"/>
<path d="M24.9176 31.1406H23.1601V32.5905H24.9176V31.1406ZM24.3025 32.0194H23.7313V31.7557H24.3025V32.0194Z" fill="#C4C4C4" stroke="#C4C4C4" stroke-width="0.5" stroke-miterlimit="10"/>
<path d="M33.3535 31.1406H31.596V32.5905H33.3535V31.1406ZM32.7384 32.0194H32.1672V31.7557H32.7384V32.0194Z" fill="#C4C4C4" stroke="#C4C4C4" stroke-width="0.5" stroke-miterlimit="10"/>
<path d="M19.3814 23.6276V40.1039C19.3814 40.2797 19.5132 40.4115 19.689 40.4115H37.0881C37.2638 40.4115 37.3956 40.2797 37.3956 40.1039V6.88755H39.1531L34.32 1.70299C33.9246 1.26362 33.3095 1 32.6944 1H7.56238C6.94726 1 6.37608 1.26362 5.93671 1.70299L1.10364 6.88755H3.21261V40.1039C3.21261 40.2797 3.34442 40.4115 3.52017 40.4115C3.69592 40.4115 3.82774 40.2797 3.82774 40.1039V23.6276H19.3814ZM3.82774 23.0124V6.84361H19.3814V23.0124H3.82774ZM36.7366 23.0124H19.9526V6.84361H36.7366V23.0124ZM36.7366 23.6276V39.7964H19.9526V23.6276H36.7366ZM7.78207 1.52724H32.4307C33.0458 1.52724 33.617 1.79087 34.0125 2.23024L37.7471 6.27244H2.4657L6.20035 2.27417C6.59578 1.79086 7.21089 1.52724 7.78207 1.52724Z" fill="#C4C4C4" stroke="#C4C4C4" stroke-width="0.75" stroke-miterlimit="10"/>
</svg>
