<svg width="41" height="38" viewBox="0 0 41 38" fill="none" xmlns="http://www.w3.org/2000/svg">
<path d="M1.53153 17.6327C1.36478 17.6327 1.2814 17.591 1.15633 17.5077C0.947889 17.3409 0.947889 17.0908 1.15633 16.924L20.1665 0.832098C20.3749 0.665342 20.6668 0.665342 20.8752 0.832098L39.8437 16.8823C40.0521 17.0491 40.0521 17.2992 39.8437 17.466C39.6352 17.6327 39.3434 17.6327 39.135 17.466L20.5 1.70757L1.90673 17.5077C1.78167 17.591 1.61491 17.6327 1.53153 17.6327Z" fill="#C4C4C4" stroke="#C4C4C4" stroke-width="0.75" stroke-miterlimit="10"/>
<path d="M14.9137 36.0175H36.3001V17.0907C36.3001 16.8406 36.5086 16.6738 36.8004 16.6738C37.0922 16.6738 37.3006 16.8406 37.3006 17.0907V36.4344C37.3006 36.6845 37.0922 36.8513 36.8004 36.8513H14.9137C14.6219 36.8513 13.1211 36.2676 13.1211 35.9758" fill="#C4C4C4"/>
<path d="M14.9137 36.0175H36.3001V17.0907C36.3001 16.8406 36.5086 16.6738 36.8004 16.6738C37.0922 16.6738 37.3006 16.8406 37.3006 17.0907V36.4344C37.3006 36.6845 37.0922 36.8513 36.8004 36.8513H14.9137C14.6219 36.8513 13.1211 36.2676 13.1211 35.9758" stroke="#C4C4C4" stroke-width="0.75" stroke-miterlimit="10"/>
<path d="M15.9142 36.4344C15.9142 36.6845 15.7058 36.8513 15.414 36.8513H4.24133C3.9495 36.8513 3.74106 36.6845 3.74106 36.4344V17.0907C3.74106 16.8406 3.9495 16.6738 4.24133 16.6738C4.53315 16.6738 4.74159 16.8406 4.74159 17.0907V35.9758H14.9137" fill="#C4C4C4"/>
<path d="M15.9142 36.4344C15.9142 36.6845 15.7058 36.8513 15.414 36.8513H4.24133C3.9495 36.8513 3.74106 36.6845 3.74106 36.4344V17.0907C3.74106 16.8406 3.9495 16.6738 4.24133 16.6738C4.53315 16.6738 4.74159 16.8406 4.74159 17.0907V35.9758H14.9137" stroke="#C4C4C4" stroke-width="0.75" stroke-miterlimit="10"/>
<path d="M32.7149 10.2115C32.423 10.2115 32.2146 10.0447 32.2146 9.79459V3.37449H29.1713V6.37609C29.1713 6.62623 28.9629 6.79298 28.671 6.79298C28.3792 6.79298 28.1708 6.62623 28.1708 6.37609V2.91591C28.1708 2.66578 28.3792 2.49902 28.671 2.49902H32.7566C33.0484 2.49902 33.2568 2.66578 33.2568 2.91591V9.79459C33.2151 10.0447 33.0484 10.2115 32.7149 10.2115Z" fill="#C4C4C4" stroke="#C4C4C4" stroke-width="0.75" stroke-miterlimit="10"/>
</svg>
