<svg width="230" height="90" viewBox="0 0 230 90" fill="none" xmlns="http://www.w3.org/2000/svg">
<path d="M112.987 0H108.833V4.78603H112.987V0Z" fill="white"/>
<path d="M118.308 36.1367H108.833V40.2825H122.451V37.5536V36.1367V32.7676H118.308V36.1367Z" fill="white"/>
<path d="M122.462 11.7148H118.308V16.5009H122.462V11.7148Z" fill="white"/>
<path d="M115.121 24.7809H118.308V30.3961H122.451V24.7809V19.9844H115.121V24.7809Z" fill="white"/>
<path d="M112.987 21.4844H108.833V34.1317H112.987V21.4844Z" fill="white"/>
<path d="M112.987 6.26562H108.833V18.682H112.987V6.26562Z" fill="white"/>
<path d="M115.069 4.78603H118.308V10.5482H122.451V4.78603V2.20409V0H115.069V4.78603Z" fill="white"/>
<path d="M48.9322 80.1764C48.6693 79.9455 48.3222 79.8301 47.8806 79.8301H46.3241C46.2716 79.8301 46.24 79.8616 46.24 79.914V84.3852C46.24 84.4377 46.2716 84.4692 46.3241 84.4692H47.8806C48.3222 84.4692 48.6693 84.3537 48.9322 84.1228C49.1951 83.8919 49.3213 83.577 49.3213 83.1782V81.1106C49.3318 80.7222 49.1951 80.4073 48.9322 80.1764ZM48.827 83.1152C48.827 83.3881 48.7429 83.6085 48.5746 83.7765C48.4064 83.9339 48.1855 84.0179 47.9016 84.0179H46.7553C46.7448 84.0179 46.7448 84.0179 46.7448 84.0074V80.2709C46.7448 80.2604 46.7448 80.2604 46.7553 80.2604H47.9016C48.1855 80.2604 48.4064 80.3444 48.5746 80.5018C48.7324 80.6592 48.8165 80.8901 48.8165 81.163V83.1152H48.827Z" fill="white"/>
<path d="M52.0134 79.8301H51.5612C51.5192 79.8301 51.4771 79.8511 51.4666 79.8931L50.0048 84.3747C49.9943 84.4062 49.9943 84.4272 50.0153 84.4482C50.0259 84.4692 50.0469 84.4692 50.0784 84.4692H50.436C50.4781 84.4692 50.5201 84.4482 50.5306 84.4062L50.7936 83.577C50.7936 83.5665 50.7936 83.5665 50.8041 83.5665H52.7706C52.7706 83.5665 52.7811 83.5665 52.7811 83.577L53.044 84.4062C53.0545 84.4482 53.0966 84.4692 53.1387 84.4692H53.4962C53.5593 84.4692 53.5698 84.4272 53.5698 84.4062L52.0976 79.8931C52.0976 79.8511 52.066 79.8301 52.0134 79.8301ZM52.6549 83.1467C52.6444 83.1467 52.6444 83.1467 52.6549 83.1467H50.9408H50.9303L51.7821 80.4598L52.6549 83.1467Z" fill="white"/>
<path d="M64.328 79.7891H60.6473C60.5316 79.7891 60.4685 79.852 60.4685 79.9675V89.7075C60.4685 89.8229 60.5316 89.8859 60.6473 89.8859H61.1205C61.2362 89.8859 61.2993 89.8229 61.2993 89.7075V85.3098C61.2993 85.2888 61.2993 85.2888 61.3203 85.2888H64.2964C65.1272 85.2888 65.8003 85.0369 66.305 84.5331C66.8098 84.0293 67.0622 83.3681 67.0622 82.5494C67.0622 81.7308 66.8098 81.0485 66.305 80.5448C65.8108 80.041 65.1482 79.7891 64.328 79.7891ZM65.7056 84.0188C65.3481 84.3862 64.8643 84.5751 64.2754 84.5751H61.3308C61.3098 84.5751 61.3098 84.5751 61.3098 84.5541V80.5657C61.3098 80.5447 61.3098 80.5448 61.3308 80.5448H64.2754C64.8643 80.5448 65.3481 80.7337 65.7056 81.101C66.0632 81.4684 66.2525 81.9617 66.2525 82.5704C66.2419 83.1582 66.0632 83.6515 65.7056 84.0188Z" fill="white"/>
<path d="M79.2716 80.1125C78.7668 79.8396 78.1674 79.7031 77.5049 79.7031C76.8424 79.7031 76.2534 79.8396 75.7487 80.1125C75.2439 80.3853 74.8548 80.7737 74.5814 81.267C74.3079 81.7603 74.1712 82.3375 74.1712 82.9778V86.7247C74.1712 87.365 74.3079 87.9422 74.5814 88.4355C74.8548 88.9288 75.2439 89.3172 75.7487 89.59C76.2534 89.8629 76.8424 89.9994 77.5049 89.9994C78.1674 89.9994 78.7563 89.8629 79.2716 89.59C79.7764 89.3172 80.176 88.9288 80.4599 88.4355C80.7334 87.9422 80.8806 87.365 80.8806 86.7247V82.9778C80.8806 82.3375 80.7439 81.7603 80.4599 81.267C80.176 80.7737 79.7764 80.3853 79.2716 80.1125ZM80.0498 86.7457C80.0498 87.5014 79.8185 88.1207 79.3557 88.5825C78.893 89.0443 78.2726 89.2752 77.5154 89.2752C76.7687 89.2752 76.1483 89.0443 75.6961 88.5825C75.2334 88.1207 75.002 87.5119 75.002 86.7457V82.9568C75.002 82.2116 75.2334 81.5923 75.6961 81.1305C76.1588 80.6687 76.7687 80.4378 77.5154 80.4378C78.2726 80.4378 78.893 80.6687 79.3557 81.1305C79.8185 81.5923 80.0498 82.2116 80.0498 82.9568V86.7457Z" fill="white"/>
<path d="M92.3643 85.1607C92.3643 85.1502 92.3643 85.1502 92.3853 85.1397C93.0163 85.0242 93.5316 84.7303 93.9102 84.2685C94.2888 83.8067 94.4781 83.219 94.4781 82.5367C94.4781 81.7286 94.2257 81.0673 93.7314 80.574C93.2371 80.0703 92.5746 79.8184 91.7649 79.8184H88.1578C88.0421 79.8184 87.979 79.8813 87.979 79.9968V89.7053C87.979 89.8207 88.0421 89.8837 88.1578 89.8837H88.631C88.7467 89.8837 88.8098 89.8207 88.8098 89.7053V85.2236C88.8098 85.2026 88.8098 85.2026 88.8308 85.2026H91.5335C91.544 85.2026 91.5545 85.2026 91.5651 85.2236L93.7524 89.7683C93.7735 89.8207 93.8261 89.8837 93.9522 89.8837H94.4255C94.5517 89.8837 94.5727 89.7997 94.5727 89.7473C94.5727 89.7158 94.5622 89.6843 94.5517 89.6633L92.3643 85.1607ZM88.8308 84.4994C88.8098 84.4994 88.8098 84.4994 88.8098 84.4784V80.5845C88.8098 80.5636 88.8098 80.5635 88.8308 80.5635H91.6912C92.2696 80.5635 92.7429 80.7525 93.1109 81.1093C93.4685 81.4767 93.6473 81.9595 93.6473 82.5472C93.6473 83.1245 93.4685 83.6073 93.1109 83.9641C92.7534 84.3315 92.2802 84.5099 91.6912 84.5099H88.8308V84.4994Z" fill="white"/>
<path d="M108.307 79.8105H101.85C101.734 79.8105 101.671 79.8735 101.671 79.989V80.3773C101.671 80.4928 101.734 80.5557 101.85 80.5557H104.574C104.595 80.5557 104.595 80.5557 104.595 80.5767V89.708C104.595 89.8234 104.658 89.8864 104.773 89.8864H105.247C105.362 89.8864 105.426 89.8234 105.426 89.708V80.5767C105.426 80.5557 105.426 80.5557 105.447 80.5557H108.307C108.423 80.5557 108.486 80.4928 108.486 80.3773V79.989C108.486 79.8735 108.423 79.8105 108.307 79.8105Z" fill="white"/>
<path d="M122.115 79.8105H121.642C121.526 79.8105 121.463 79.8735 121.463 79.989V86.8427C121.463 87.5669 121.231 88.1546 120.769 88.5849C120.306 89.0258 119.696 89.2462 118.928 89.2462C118.182 89.2462 117.561 89.0258 117.099 88.5849C116.636 88.1441 116.404 87.5564 116.404 86.8427V79.989C116.404 79.8735 116.341 79.8105 116.226 79.8105H115.752C115.637 79.8105 115.574 79.8735 115.574 79.989V86.8112C115.574 87.4304 115.71 87.9867 115.994 88.4695C116.268 88.9523 116.667 89.3301 117.172 89.5925C117.677 89.8549 118.266 89.9914 118.928 89.9914C119.591 89.9914 120.18 89.8549 120.685 89.5925C121.189 89.3301 121.589 88.9523 121.862 88.4695C122.136 87.9867 122.283 87.4304 122.283 86.8112V79.989C122.294 79.8735 122.231 79.8105 122.115 79.8105Z" fill="white"/>
<path d="M134.419 80.081C133.925 79.8291 133.346 79.7031 132.705 79.7031C132.053 79.7031 131.474 79.8291 130.97 80.081C130.465 80.3329 130.076 80.7002 129.802 81.162C129.529 81.6238 129.392 82.1696 129.392 82.7889V86.9032C129.392 87.5014 129.529 88.0472 129.802 88.509C130.076 88.9708 130.465 89.3382 130.97 89.6006C131.464 89.8629 132.053 89.9889 132.705 89.9889C133.693 89.9889 134.492 89.7055 135.092 89.1492C135.691 88.593 135.986 87.8163 135.986 86.8507V84.9929C135.986 84.8775 135.923 84.8145 135.807 84.8145H132.905C132.789 84.8145 132.726 84.8775 132.726 84.9929V85.3813C132.726 85.4967 132.789 85.5597 132.905 85.5597H135.134C135.155 85.5597 135.155 85.5597 135.155 85.5807V87.0186C135.155 87.6903 134.934 88.2361 134.482 88.6454C134.04 89.0548 133.441 89.2542 132.705 89.2542C131.958 89.2542 131.338 89.0338 130.885 88.614C130.433 88.1941 130.202 87.6274 130.202 86.9346V82.7679C130.202 82.0751 130.433 81.5084 130.885 81.0885C131.338 80.6582 131.948 80.4483 132.684 80.4483C133.42 80.4483 134.019 80.6582 134.461 81.0781C134.913 81.4979 135.134 82.0542 135.134 82.7259V82.9148C135.134 83.0303 135.197 83.0932 135.313 83.0932H135.786C135.902 83.0932 135.965 83.0303 135.965 82.9148V82.7049C135.965 82.1171 135.828 81.5923 135.555 81.141C135.302 80.6897 134.913 80.3329 134.419 80.081Z" fill="white"/>
<path d="M147.333 79.947C147.301 79.8525 147.228 79.8105 147.133 79.8105H146.492C146.397 79.8105 146.323 79.8525 146.292 79.947L143.116 89.6765C143.095 89.7395 143.105 89.7919 143.126 89.8234C143.147 89.8549 143.2 89.8759 143.263 89.8759H143.768C143.862 89.8759 143.936 89.8339 143.968 89.7395L144.567 87.8397C144.578 87.8187 144.578 87.8187 144.588 87.8187H149.058C149.068 87.8187 149.079 87.8187 149.079 87.8397L149.699 89.7395C149.731 89.8234 149.804 89.8759 149.899 89.8759H150.383C150.519 89.8759 150.54 89.7919 150.54 89.7395L150.53 89.6765L147.333 79.947ZM148.847 87.1155C148.837 87.126 148.826 87.126 148.816 87.126H144.809C144.798 87.126 144.788 87.126 144.788 87.1155C144.788 87.1155 144.788 87.1155 144.788 87.0945L146.807 80.8811C146.807 80.8706 146.818 80.8706 146.818 80.8706C146.818 80.8706 146.828 80.8706 146.828 80.8811L148.847 87.0945C148.847 87.1155 148.847 87.1155 148.847 87.1155Z" fill="white"/>
<path d="M146.975 78.9278H147.301C147.375 78.9278 147.449 78.8858 147.501 78.8123L148.458 77.238C148.49 77.175 148.5 77.1225 148.469 77.0806C148.448 77.0386 148.395 77.0176 148.321 77.0176H147.911C147.785 77.0176 147.732 77.0806 147.711 77.133L146.839 78.7074C146.807 78.7704 146.797 78.8228 146.828 78.8648C146.86 78.8963 146.902 78.9278 146.975 78.9278Z" fill="white"/>
<path d="M163.633 89.1412H158.501C158.48 89.1412 158.48 89.1412 158.48 89.1202V79.989C158.48 79.8735 158.417 79.8105 158.301 79.8105H157.828C157.712 79.8105 157.649 79.8735 157.649 79.989V89.6975C157.649 89.8129 157.712 89.8759 157.828 89.8759H163.633C163.749 89.8759 163.812 89.8129 163.812 89.6975V89.3196C163.801 89.2042 163.738 89.1412 163.633 89.1412Z" fill="white"/>
<path d="M171.562 79.8105H171.089C170.973 79.8105 170.91 79.8735 170.91 79.989V89.6975C170.91 89.8129 170.973 89.8759 171.089 89.8759H171.562C171.678 89.8759 171.741 89.8129 171.741 89.6975V79.989C171.731 79.8735 171.668 79.8105 171.562 79.8105Z" fill="white"/>
<path d="M183.078 79.947C183.046 79.863 182.973 79.8105 182.878 79.8105H182.236C182.142 79.8105 182.068 79.8525 182.037 79.947L178.861 89.6765C178.84 89.7395 178.85 89.7919 178.871 89.8234C178.892 89.8549 178.945 89.8759 179.008 89.8759H179.513C179.607 89.8759 179.681 89.8339 179.712 89.7395L180.312 87.8397C180.322 87.8187 180.322 87.8187 180.333 87.8187H184.802C184.813 87.8187 184.823 87.8187 184.823 87.8397L185.444 89.7395C185.475 89.8234 185.549 89.8759 185.644 89.8759H186.127C186.264 89.8759 186.285 89.7919 186.285 89.7395L186.275 89.687L183.078 79.947ZM184.592 87.1155C184.582 87.126 184.571 87.126 184.56 87.126H180.554C180.543 87.126 180.533 87.126 180.522 87.1155C180.522 87.1155 180.522 87.1155 180.522 87.0945L182.541 80.8811C182.541 80.8706 182.552 80.8706 182.552 80.8706C182.552 80.8706 182.562 80.8706 182.562 80.8811L184.581 87.0945C184.592 87.1155 184.592 87.1155 184.592 87.1155Z" fill="white"/>
<path d="M34.609 55.0391H32.7477C32.6846 55.0391 32.6215 55.06 32.5794 55.1125C32.5268 55.1545 32.5058 55.2175 32.5058 55.2805V64.6321C32.5058 65.4298 32.2534 66.07 31.7591 66.5738C31.2649 67.0671 30.6023 67.319 29.7716 67.319C28.9513 67.319 28.2888 67.0671 27.784 66.5738C27.2897 66.0805 27.0373 65.4298 27.0373 64.6321V55.2805C27.0373 55.2175 27.0163 55.1545 26.9637 55.1125C26.9111 55.06 26.8585 55.0391 26.7955 55.0391H24.9341C24.871 55.0391 24.8079 55.06 24.7658 55.1125C24.7132 55.1545 24.6922 55.2175 24.6922 55.2805V64.5901C24.6922 65.5347 24.9025 66.3639 25.3337 67.0881C25.7543 67.8123 26.3538 68.3581 27.1215 68.7569C27.8891 69.1453 28.7725 69.3447 29.7716 69.3447C30.7811 69.3447 31.675 69.1453 32.4427 68.7569C33.2104 68.3686 33.8098 67.8123 34.2199 67.0881C34.6406 66.3639 34.8509 65.5347 34.8509 64.5901V55.2805C34.8509 55.2175 34.8299 55.1545 34.7773 55.1125C34.7352 55.06 34.6826 55.0391 34.609 55.0391Z" fill="white"/>
<path d="M111.125 55.0391H101.272C101.208 55.0391 101.145 55.06 101.103 55.1125C101.051 55.1545 101.03 55.2175 101.03 55.2805V56.8338C101.03 56.8968 101.051 56.9598 101.103 57.0017C101.145 57.0542 101.208 57.0752 101.272 57.0752H104.847C104.91 57.0752 104.952 57.1067 104.952 57.1802V68.9353C104.952 68.9983 104.973 69.0613 105.026 69.1033C105.068 69.1558 105.131 69.1767 105.194 69.1767H107.056C107.119 69.1767 107.182 69.1558 107.224 69.1033C107.276 69.0508 107.297 68.9983 107.297 68.9353V57.1802C107.297 57.1172 107.329 57.0752 107.403 57.0752H111.125C111.188 57.0752 111.252 57.0542 111.294 57.0017C111.346 56.9598 111.367 56.8968 111.367 56.8338V55.2805C111.367 55.2175 111.346 55.1545 111.294 55.1125C111.252 55.06 111.199 55.0391 111.125 55.0391Z" fill="white"/>
<path d="M135.828 55.0391H126.721C126.658 55.0391 126.595 55.06 126.553 55.1125C126.5 55.1545 126.479 55.2175 126.479 55.2805V68.9248C126.479 68.9878 126.5 69.0508 126.553 69.0928C126.595 69.1453 126.658 69.1662 126.721 69.1662H135.828C135.891 69.1662 135.954 69.1453 135.996 69.0928C136.038 69.0403 136.07 68.9878 136.07 68.9248V67.3925C136.07 67.3295 136.049 67.2665 135.996 67.2245C135.954 67.1826 135.891 67.1511 135.828 67.1511H128.929C128.866 67.1511 128.824 67.1196 128.824 67.0461V63.1522C128.824 63.0892 128.856 63.0473 128.929 63.0473H133.567C133.63 63.0473 133.693 63.0263 133.735 62.9738C133.788 62.9213 133.809 62.8688 133.809 62.8059V61.2735C133.809 61.2105 133.788 61.1475 133.735 61.1056C133.683 61.0636 133.63 61.0321 133.567 61.0321H128.929C128.866 61.0321 128.824 61.0006 128.824 60.9271V57.1487C128.824 57.0857 128.856 57.0437 128.929 57.0437H135.828C135.891 57.0437 135.954 57.0227 135.996 56.9703C136.038 56.9283 136.07 56.8653 136.07 56.8023V55.27C136.07 55.207 136.049 55.144 135.996 55.102C135.954 55.0601 135.891 55.0391 135.828 55.0391Z" fill="white"/>
<path d="M153.001 55.0391H151.14C151.077 55.0391 151.014 55.06 150.971 55.1125C150.929 55.1545 150.898 55.2175 150.898 55.2805V68.9248C150.898 68.9878 150.919 69.0508 150.971 69.0928C151.024 69.1453 151.077 69.1662 151.14 69.1662H153.001C153.064 69.1662 153.127 69.1453 153.169 69.0928C153.211 69.0403 153.243 68.9878 153.243 68.9248V55.2805C153.243 55.2175 153.222 55.1545 153.169 55.1125C153.127 55.06 153.075 55.0391 153.001 55.0391Z" fill="white"/>
<path d="M61.4675 68.9878C61.4675 68.9458 61.457 68.9143 61.4465 68.8829L57.0402 55.2385C56.9981 55.102 56.914 55.0391 56.7773 55.0391H54.2534C54.1167 55.0391 54.0325 55.102 53.9905 55.2385L49.6052 68.8829C49.5736 68.9773 49.5842 69.0508 49.6262 69.0928C49.6683 69.1453 49.7314 69.1662 49.805 69.1662H51.8241C51.9608 69.1662 52.045 69.1033 52.087 68.9668L55.4417 57.9988C55.4522 57.9464 55.4733 57.9149 55.5048 57.9149C55.5364 57.9149 55.5469 57.9464 55.5679 57.9988L58.9647 68.9668C59.0067 69.1033 59.0909 69.1662 59.2276 69.1662H61.2467C61.3939 69.1662 61.4675 69.1138 61.4675 68.9878Z" fill="white"/>
<path d="M200.345 55.2385C200.303 55.102 200.219 55.0391 200.082 55.0391H197.559C197.422 55.0391 197.338 55.102 197.296 55.2385L192.91 68.8829C192.879 68.9773 192.889 69.0508 192.931 69.0928C192.973 69.1453 193.037 69.1662 193.11 69.1662H195.129C195.266 69.1662 195.35 69.1033 195.392 68.9668L198.747 57.9988C198.757 57.9464 198.778 57.9149 198.81 57.9149C198.842 57.9149 198.852 57.9464 198.873 57.9988L202.27 68.9668C202.312 69.1033 202.396 69.1662 202.533 69.1662H204.552C204.699 69.1662 204.773 69.1033 204.773 68.9878C204.773 68.9458 204.762 68.9143 204.752 68.8829L200.345 55.2385Z" fill="white"/>
<path d="M175.264 63.0158C175.253 62.9843 175.253 62.9633 175.264 62.9318C175.274 62.9003 175.296 62.8898 175.327 62.8898C176.179 62.6379 176.841 62.1761 177.315 61.5254C177.798 60.8747 178.03 60.077 178.03 59.1534C178.03 58.3452 177.851 57.6315 177.504 57.0017C177.157 56.372 176.663 55.8892 176.032 55.5533C175.401 55.207 174.665 55.0391 173.844 55.0391H168.281C168.218 55.0391 168.155 55.06 168.113 55.1125C168.06 55.1545 168.039 55.2175 168.039 55.2805V68.9248C168.039 68.9878 168.06 69.0508 168.113 69.0928C168.155 69.1453 168.218 69.1662 168.281 69.1662H170.143C170.206 69.1662 170.269 69.1453 170.311 69.0928C170.363 69.0403 170.384 68.9878 170.384 68.9248V57.1592C170.384 57.0962 170.416 57.0542 170.49 57.0542H173.529C174.181 57.0542 174.696 57.2536 175.096 57.642C175.495 58.0303 175.695 58.5446 175.695 59.1744C175.695 59.8041 175.495 60.3184 175.096 60.6962C174.696 61.0846 174.17 61.2735 173.529 61.2735H173.013C172.95 61.2735 172.887 61.2945 172.845 61.347C172.793 61.3994 172.772 61.4519 172.772 61.5149V63.3726C172.772 63.4356 172.793 63.4986 172.845 63.5406C172.898 63.593 172.95 63.614 173.013 63.614H173.161C173.161 63.614 173.234 63.6035 173.245 63.614C173.266 63.6245 173.276 63.6875 173.276 63.6875L175.706 68.9773C175.758 69.1033 175.853 69.1558 175.99 69.1558H177.935C178.082 69.1558 178.156 69.1033 178.156 68.9983C178.156 68.9668 178.145 68.9353 178.114 68.8724L175.264 63.0158Z" fill="white"/>
<path d="M83.415 63.0158C83.4045 62.9843 83.4045 62.9633 83.415 62.9318C83.4255 62.9003 83.4466 62.8898 83.4781 62.8898C84.3299 62.6379 84.9924 62.1761 85.4657 61.5254C85.9389 60.8747 86.1808 60.077 86.1808 59.1534C86.1808 58.3452 86.002 57.6315 85.655 57.0017C85.3079 56.372 84.8137 55.8892 84.1827 55.5533C83.5517 55.207 82.8156 55.0391 81.9953 55.0391H76.4322C76.3691 55.0391 76.306 55.06 76.264 55.1125C76.2114 55.1545 76.1903 55.2175 76.1903 55.2805V68.9248C76.1903 68.9878 76.2114 69.0508 76.264 69.0928C76.306 69.1453 76.3691 69.1662 76.4322 69.1662H78.2936C78.3567 69.1662 78.4198 69.1453 78.4618 69.0928C78.5144 69.0403 78.5355 68.9878 78.5355 68.9248V57.1592C78.5355 57.0962 78.567 57.0542 78.6406 57.0542H81.6798C82.3318 57.0542 82.8471 57.2536 83.2467 57.642C83.6464 58.0303 83.8462 58.5446 83.8462 59.1744C83.8462 59.8041 83.6464 60.3184 83.2467 60.6962C82.8471 61.0846 82.3213 61.2735 81.6798 61.2735H81.1645C81.1014 61.2735 81.0383 61.2945 80.9963 61.347C80.9437 61.3994 80.9227 61.4519 80.9227 61.5149V63.3726C80.9227 63.4356 80.9437 63.4986 80.9963 63.5406C81.0383 63.593 81.1014 63.614 81.1645 63.614H81.3012C81.3012 63.614 81.3749 63.6035 81.3854 63.614C81.4064 63.6245 81.4169 63.6875 81.4169 63.6875L83.8462 68.9773C83.8988 69.1033 83.9934 69.1558 84.1301 69.1558H86.0756C86.2229 69.1558 86.2965 69.1033 86.2965 68.9983C86.2965 68.9668 86.286 68.9353 86.2544 68.8724L83.415 63.0158Z" fill="white"/>
<path d="M7.58222 55.4789C7.17209 55.2585 6.73041 55.1115 6.25718 55.0066H6.24666C6.22563 55.0066 6.18356 54.9961 6.18356 54.9961H6.16253C6.09943 54.9961 6.03633 55.0171 5.99427 55.0696C5.9522 55.122 5.92066 55.1745 5.92066 55.2375V55.5734V56.6439V56.9378C5.92066 57.0218 5.94169 57.0637 5.99427 57.1057C6.02582 57.1372 6.05737 57.1477 6.1415 57.1477C6.1415 57.1477 6.18356 57.1477 6.19408 57.1582C6.47802 57.2212 6.69886 57.4416 6.90918 57.6515C7.39293 58.1553 7.63481 58.8165 7.63481 59.6352V60.0865V64.5577C7.63481 65.3763 7.39293 66.0375 6.90918 66.5413C6.42544 67.0451 5.78394 67.297 4.98471 67.297C4.2065 67.297 3.56501 67.0451 3.08126 66.5413C2.59752 66.0375 2.35564 65.3763 2.35564 64.5577V60.0865V59.6352C2.35564 58.8165 2.59752 58.1553 3.08126 57.6515C3.29159 57.4416 3.51243 57.2212 3.79637 57.1582C3.80689 57.1582 3.84895 57.1477 3.84895 57.1477C3.93308 57.1477 3.96463 57.1372 3.99618 57.1057C4.04876 57.0637 4.06979 57.0218 4.06979 56.9378V56.6439V55.5734V55.2375C4.06979 55.1745 4.04876 55.1115 3.99618 55.0696C3.9436 55.0276 3.89102 54.9961 3.82792 54.9961H3.80689C3.80689 54.9961 3.76482 54.9961 3.74379 55.0066H3.73327C3.26004 55.101 2.81836 55.2585 2.40822 55.4789C1.63002 55.8777 1.04111 56.455 0.630976 57.2002C0.210325 57.9454 0 58.7955 0 59.7611V60.0865V64.5996C0 65.7961 0.33652 66.8037 1.00956 67.6329C1.6826 68.4516 2.587 68.9763 3.72276 69.2072C3.78585 69.2387 3.82792 69.2702 3.82792 69.3332V71.0335C3.82792 71.0965 3.84895 71.1594 3.90153 71.2014C3.9436 71.2434 4.0067 71.2749 4.06979 71.2749H5.93117C5.99427 71.2749 6.05737 71.2539 6.09943 71.2014C6.1415 71.1489 6.17305 71.0965 6.17305 71.0335V69.3332C6.17305 69.2702 6.20459 69.2282 6.25718 69.2072C7.40345 68.9763 8.30785 68.4516 8.98089 67.6224C9.64341 66.7932 9.97993 65.7857 9.97993 64.5996V60.0865V59.7611C9.97993 58.7955 9.76961 57.9349 9.34896 57.2002C8.92831 56.455 8.33939 55.8777 7.58222 55.4789Z" fill="white"/>
<path d="M229.17 57.2248C228.75 56.4902 228.161 55.9129 227.414 55.5141C227.004 55.2936 226.562 55.1467 226.089 55.0417H226.078C226.057 55.0417 226.015 55.0312 226.015 55.0312H225.994C225.931 55.0312 225.868 55.0522 225.826 55.1047C225.784 55.1467 225.752 55.2097 225.752 55.2726V55.6085V56.6791V56.973C225.752 57.0569 225.774 57.0989 225.826 57.1409C225.858 57.1724 225.889 57.1829 225.973 57.1829C225.973 57.1829 226.015 57.1829 226.026 57.1934C226.31 57.2563 226.531 57.4767 226.741 57.6867C227.225 58.1904 227.467 58.8517 227.467 59.6703V60.1217V63.8161V64.4774C227.467 65.338 227.214 66.0307 226.699 66.5555C226.184 67.0803 225.511 67.3427 224.659 67.3427C223.818 67.3427 223.144 67.0803 222.64 66.5555C222.124 66.0307 221.872 65.338 221.872 64.4774V63.8161V62.6931V60.1217V59.6703C221.872 58.8517 222.114 58.1904 222.598 57.6867C222.808 57.4767 223.029 57.2458 223.313 57.1934C223.323 57.1934 223.365 57.1829 223.365 57.1829C223.449 57.1829 223.481 57.1724 223.513 57.1409C223.565 57.0989 223.586 57.0569 223.586 56.973V56.6791V55.6085V55.2726C223.586 55.2097 223.565 55.1467 223.513 55.1047C223.46 55.0627 223.407 55.0312 223.344 55.0312H223.323C223.323 55.0312 223.281 55.0313 223.26 55.0417H223.25C222.776 55.1362 222.335 55.2936 221.925 55.5141C221.167 55.9129 220.579 56.4902 220.168 57.2248C219.748 57.97 219.537 58.8202 219.537 59.7858V60.1112V62.6826V63.8056V64.3934C219.537 65.38 219.748 66.2406 220.179 66.9963C220.6 67.752 221.209 68.3293 221.988 68.7386C222.766 69.1479 223.67 69.3579 224.68 69.3579C225.7 69.3579 226.604 69.1479 227.382 68.7386C228.161 68.3293 228.76 67.7415 229.191 66.9963C229.622 66.2406 229.843 65.3695 229.843 64.3934V62.6826V60.1112V59.7858C229.791 58.8202 229.58 57.97 229.17 57.2248Z" fill="white"/>
<path d="M201.66 52.5711V51.5741V51.5006V51.1122V49.7793H200.335V51.1122H195.992V51.5741V52.5711V52.7496H201.66V52.5711Z" fill="white"/>
</svg>
