<svg width="286" height="50" viewBox="0 0 286 50" fill="none" xmlns="http://www.w3.org/2000/svg">
<path d="M60.8314 37.787C60.5046 37.5 60.0732 37.3564 59.5241 37.3564H57.5892C57.5238 37.3564 57.4846 37.3956 57.4846 37.4608V43.0193C57.4846 43.0845 57.5238 43.1237 57.5892 43.1237H59.5241C60.0732 43.1237 60.5046 42.9801 60.8314 42.6931C61.1583 42.406 61.3152 42.0146 61.3152 41.5188V38.9483C61.3282 38.4655 61.1583 38.0741 60.8314 37.787ZM60.7007 41.4405C60.7007 41.7797 60.5961 42.0537 60.3869 42.2625C60.1778 42.4582 59.9032 42.5626 59.5502 42.5626H58.1252C58.1121 42.5626 58.1121 42.5626 58.1121 42.5495V37.9045C58.1121 37.8914 58.1121 37.8914 58.1252 37.8914H59.5502C59.9032 37.8914 60.1778 37.9958 60.3869 38.1915C60.5831 38.3872 60.6876 38.6743 60.6876 39.0135V41.4405H60.7007Z" fill="#ffffff"/>
<path d="M64.6619 37.3564H64.0997C64.0474 37.3564 63.9951 37.3825 63.9821 37.4347L62.1648 43.0062C62.1518 43.0454 62.1518 43.0715 62.1779 43.0976C62.191 43.1237 62.2171 43.1237 62.2564 43.1237H62.7009C62.7531 43.1237 62.8054 43.0976 62.8185 43.0454L63.1454 42.0146C63.1454 42.0015 63.1454 42.0015 63.1584 42.0015H65.6032C65.6032 42.0015 65.6163 42.0015 65.6163 42.0146L65.9431 43.0454C65.9562 43.0976 66.0085 43.1237 66.0608 43.1237H66.5053C66.5837 43.1237 66.5968 43.0715 66.5968 43.0454L64.7665 37.4347C64.7665 37.3825 64.7273 37.3564 64.6619 37.3564ZM65.4594 41.4796C65.4463 41.4796 65.4463 41.4796 65.4594 41.4796H63.3284H63.3153L64.3743 38.1393L65.4594 41.4796Z" fill="#ffffff"/>
<path d="M79.9711 37.3042H75.3953C75.2515 37.3042 75.1731 37.3825 75.1731 37.526V49.6345C75.1731 49.7781 75.2515 49.8564 75.3953 49.8564H75.9837C76.1275 49.8564 76.2059 49.7781 76.2059 49.6345V44.1674C76.2059 44.1413 76.2059 44.1413 76.2321 44.1413H79.9319C80.9647 44.1413 81.8014 43.8282 82.4289 43.2019C83.0565 42.5756 83.3702 41.7536 83.3702 40.7358C83.3702 39.7181 83.0565 38.87 82.4289 38.2437C81.8145 37.6174 80.9908 37.3042 79.9711 37.3042ZM81.6837 42.5625C81.2392 43.0192 80.6379 43.2541 79.9057 43.2541H76.2451C76.219 43.2541 76.219 43.2541 76.219 43.228V38.2697C76.219 38.2436 76.219 38.2437 76.2451 38.2437H79.9057C80.6379 38.2437 81.2392 38.4785 81.6837 38.9352C82.1282 39.3919 82.3636 40.0051 82.3636 40.7619C82.3505 41.4926 82.1282 42.1059 81.6837 42.5625Z" fill="#ffffff"/>
<path d="M98.5487 37.7086C97.9211 37.3693 97.176 37.1997 96.3523 37.1997C95.5287 37.1997 94.7966 37.3693 94.169 37.7086C93.5415 38.0478 93.0578 38.5306 92.7179 39.1439C92.378 39.7571 92.208 40.4747 92.208 41.2707V45.9288C92.208 46.7247 92.378 47.4424 92.7179 48.0556C93.0578 48.6689 93.5415 49.1517 94.169 49.4909C94.7966 49.8302 95.5287 49.9998 96.3523 49.9998C97.176 49.9998 97.9081 49.8302 98.5487 49.4909C99.1762 49.1517 99.673 48.6689 100.026 48.0556C100.366 47.4424 100.549 46.7247 100.549 45.9288V41.2707C100.549 40.4747 100.379 39.7571 100.026 39.1439C99.673 38.5306 99.1762 38.0478 98.5487 37.7086ZM99.5161 45.9549C99.5161 46.8944 99.2285 47.6642 98.6533 48.2383C98.078 48.8124 97.3067 49.0995 96.3654 49.0995C95.4372 49.0995 94.6658 48.8124 94.1037 48.2383C93.5284 47.6642 93.2408 46.9074 93.2408 45.9549V41.2446C93.2408 40.3182 93.5284 39.5483 94.1037 38.9742C94.6789 38.4001 95.4372 38.1131 96.3654 38.1131C97.3067 38.1131 98.078 38.4001 98.6533 38.9742C99.2285 39.5483 99.5161 40.3182 99.5161 41.2446V45.9549Z" fill="#ffffff"/>
<path d="M114.825 43.9852C114.825 43.9721 114.825 43.9721 114.851 43.9591C115.636 43.8155 116.276 43.4502 116.747 42.8761C117.218 42.302 117.453 41.5713 117.453 40.7232C117.453 39.7185 117.139 38.8965 116.525 38.2832C115.91 37.6569 115.087 37.3438 114.08 37.3438H109.596C109.452 37.3438 109.374 37.422 109.374 37.5656V49.6349C109.374 49.7785 109.452 49.8568 109.596 49.8568H110.184C110.328 49.8568 110.406 49.7785 110.406 49.6349V44.0635C110.406 44.0374 110.406 44.0374 110.432 44.0374H113.792C113.805 44.0374 113.819 44.0374 113.832 44.0635L116.551 49.7132C116.577 49.7785 116.642 49.8568 116.799 49.8568H117.388C117.545 49.8568 117.571 49.7524 117.571 49.6871C117.571 49.648 117.558 49.6088 117.545 49.5828L114.825 43.9852ZM110.432 43.1631C110.406 43.1631 110.406 43.1632 110.406 43.1371V38.2963C110.406 38.2702 110.406 38.2702 110.432 38.2702H113.989C114.708 38.2702 115.296 38.505 115.753 38.9486C116.198 39.4053 116.42 40.0055 116.42 40.7362C116.42 41.4539 116.198 42.0541 115.753 42.4977C115.309 42.9544 114.721 43.1762 113.989 43.1762H110.432V43.1631Z" fill="#ffffff"/>
<path d="M134.645 37.3306H126.618C126.474 37.3306 126.395 37.4088 126.395 37.5524V38.0352C126.395 38.1787 126.474 38.257 126.618 38.257H130.004C130.03 38.257 130.03 38.257 130.03 38.2831V49.6348C130.03 49.7783 130.108 49.8566 130.252 49.8566H130.84C130.984 49.8566 131.063 49.7783 131.063 49.6348V38.2831C131.063 38.257 131.063 38.257 131.089 38.257H134.645C134.788 38.257 134.867 38.1787 134.867 38.0352V37.5524C134.867 37.4088 134.788 37.3306 134.645 37.3306Z" fill="#ffffff"/>
<path d="M151.81 37.3306H151.222C151.078 37.3306 151 37.4088 151 37.5524V46.0727C151 46.973 150.712 47.7037 150.137 48.2387C149.562 48.7867 148.803 49.0607 147.849 49.0607C146.921 49.0607 146.149 48.7867 145.574 48.2387C144.999 47.6907 144.711 46.96 144.711 46.0727V37.5524C144.711 37.4088 144.633 37.3306 144.489 37.3306H143.901C143.757 37.3306 143.678 37.4088 143.678 37.5524V46.0336C143.678 46.8034 143.848 47.495 144.201 48.0952C144.541 48.6954 145.038 49.1651 145.666 49.4913C146.293 49.8175 147.025 49.9871 147.849 49.9871C148.673 49.9871 149.405 49.8175 150.032 49.4913C150.66 49.1651 151.157 48.6954 151.496 48.0952C151.836 47.495 152.019 46.8034 152.019 46.0336V37.5524C152.033 37.4088 151.954 37.3306 151.81 37.3306Z" fill="#ffffff"/>
<path d="M167.107 37.6694C166.492 37.3563 165.773 37.1997 164.976 37.1997C164.165 37.1997 163.446 37.3563 162.818 37.6694C162.191 37.9826 161.707 38.4393 161.367 39.0134C161.027 39.5875 160.857 40.266 160.857 41.0358V46.1506C160.857 46.8944 161.027 47.5729 161.367 48.147C161.707 48.7211 162.191 49.1778 162.818 49.504C163.433 49.8302 164.165 49.9867 164.976 49.9867C166.205 49.9867 167.198 49.6344 167.943 48.9429C168.688 48.2514 169.055 47.2858 169.055 46.0854V43.7759C169.055 43.6324 168.976 43.5541 168.832 43.5541H165.224C165.08 43.5541 165.002 43.6324 165.002 43.7759V44.2587C165.002 44.4022 165.08 44.4805 165.224 44.4805H167.996C168.022 44.4805 168.022 44.4805 168.022 44.5066V46.2941C168.022 47.1292 167.747 47.8077 167.185 48.3166C166.636 48.8255 165.891 49.0734 164.976 49.0734C164.047 49.0734 163.276 48.7994 162.714 48.2774C162.152 47.7555 161.864 47.0509 161.864 46.1898V41.0097C161.864 40.1485 162.152 39.444 162.714 38.922C163.276 38.3871 164.034 38.1261 164.949 38.1261C165.865 38.1261 166.61 38.3871 167.159 38.909C167.721 39.4309 167.996 40.1225 167.996 40.9575V41.1924C167.996 41.3359 168.074 41.4142 168.218 41.4142H168.806C168.95 41.4142 169.028 41.3359 169.028 41.1924V40.9314C169.028 40.2007 168.858 39.5483 168.519 38.9873C168.205 38.4262 167.721 37.9826 167.107 37.6694Z" fill="#ffffff"/>
<path d="M183.161 37.5002C183.122 37.3828 183.03 37.3306 182.912 37.3306H182.115C181.997 37.3306 181.906 37.3828 181.867 37.5002L177.918 49.5957C177.892 49.674 177.905 49.7392 177.931 49.7783C177.958 49.8175 178.023 49.8436 178.101 49.8436H178.729C178.847 49.8436 178.938 49.7914 178.977 49.674L179.722 47.3123C179.736 47.2862 179.736 47.2862 179.749 47.2862H185.305C185.318 47.2862 185.331 47.2862 185.331 47.3123L186.102 49.674C186.142 49.7783 186.233 49.8436 186.351 49.8436H186.952C187.122 49.8436 187.148 49.7392 187.148 49.674L187.135 49.5957L183.161 37.5002ZM185.043 46.412C185.03 46.425 185.017 46.425 185.004 46.425H180.023C180.01 46.425 179.997 46.425 179.997 46.412C179.997 46.412 179.997 46.412 179.997 46.3859L182.507 38.6615C182.507 38.6484 182.52 38.6484 182.52 38.6484C182.52 38.6484 182.533 38.6484 182.533 38.6615L185.043 46.3859C185.043 46.412 185.043 46.412 185.043 46.412Z" fill="#ffffff"/>
<path d="M182.716 36.2341H183.122C183.213 36.2341 183.305 36.1819 183.37 36.0906L184.56 34.1334C184.599 34.0551 184.612 33.9899 184.573 33.9377C184.547 33.8855 184.481 33.8594 184.39 33.8594H183.88C183.723 33.8594 183.658 33.9377 183.632 34.0029L182.547 35.9601C182.507 36.0384 182.494 36.1036 182.533 36.1558C182.573 36.195 182.625 36.2341 182.716 36.2341Z" fill="#ffffff"/>
<path d="M203.425 48.9302H197.045C197.019 48.9302 197.019 48.9302 197.019 48.9041V37.5524C197.019 37.4088 196.94 37.3306 196.797 37.3306H196.208C196.065 37.3306 195.986 37.4088 195.986 37.5524V49.6218C195.986 49.7653 196.065 49.8436 196.208 49.8436H203.425C203.569 49.8436 203.647 49.7653 203.647 49.6218V49.152C203.634 49.0085 203.556 48.9302 203.425 48.9302Z" fill="#ffffff"/>
<path d="M213.282 37.3306H212.694C212.55 37.3306 212.472 37.4088 212.472 37.5524V49.6218C212.472 49.7653 212.55 49.8436 212.694 49.8436H213.282C213.426 49.8436 213.505 49.7653 213.505 49.6218V37.5524C213.492 37.4088 213.413 37.3306 213.282 37.3306Z" fill="#ffffff"/>
<path d="M227.598 37.5002C227.559 37.3958 227.467 37.3306 227.35 37.3306H226.552C226.435 37.3306 226.343 37.3828 226.304 37.5002L222.356 49.5957C222.329 49.674 222.342 49.7392 222.369 49.7783C222.395 49.8175 222.46 49.8436 222.539 49.8436H223.166C223.284 49.8436 223.375 49.7914 223.415 49.674L224.16 47.3123C224.173 47.2862 224.173 47.2862 224.186 47.2862H229.742C229.755 47.2862 229.768 47.2862 229.768 47.3123L230.54 49.674C230.579 49.7783 230.67 49.8436 230.788 49.8436H231.389C231.559 49.8436 231.586 49.7392 231.586 49.674L231.572 49.6087L227.598 37.5002ZM229.481 46.412C229.468 46.425 229.455 46.425 229.441 46.425H224.46C224.447 46.425 224.434 46.425 224.421 46.412C224.421 46.412 224.421 46.412 224.421 46.3859L226.931 38.6615C226.931 38.6484 226.944 38.6484 226.944 38.6484C226.944 38.6484 226.957 38.6484 226.957 38.6615L229.468 46.3859C229.481 46.412 229.481 46.412 229.481 46.412Z" fill="#ffffff"/>
<path d="M43.0252 6.53711H40.7111C40.6327 6.53711 40.5543 6.5632 40.502 6.62844C40.4366 6.68063 40.4104 6.75892 40.4104 6.83721V18.463C40.4104 19.4546 40.0967 20.2505 39.4822 20.8768C38.8678 21.4901 38.0441 21.8033 37.0113 21.8033C35.9916 21.8033 35.1679 21.4901 34.5404 20.8768C33.926 20.2636 33.6122 19.4546 33.6122 18.463V6.83721C33.6122 6.75892 33.586 6.68063 33.5207 6.62844C33.4553 6.5632 33.3899 6.53711 33.3115 6.53711H30.9975C30.919 6.53711 30.8406 6.5632 30.7883 6.62844C30.7229 6.68063 30.6968 6.75892 30.6968 6.83721V18.4108C30.6968 19.5851 30.9582 20.6159 31.4943 21.5162C32.0172 22.4165 32.7624 23.095 33.7168 23.5908C34.6711 24.0736 35.7693 24.3215 37.0113 24.3215C38.2664 24.3215 39.3776 24.0736 40.332 23.5908C41.2864 23.1081 42.0316 22.4165 42.5414 21.5162C43.0644 20.6159 43.3258 19.5851 43.3258 18.4108V6.83721C43.3258 6.75892 43.2997 6.68063 43.2343 6.62844C43.182 6.5632 43.1167 6.53711 43.0252 6.53711Z" fill="#ffffff"/>
<path d="M138.149 6.53711H125.899C125.82 6.53711 125.742 6.5632 125.689 6.62844C125.624 6.68063 125.598 6.75892 125.598 6.83721V8.76831C125.598 8.8466 125.624 8.92488 125.689 8.97708C125.742 9.04232 125.82 9.06841 125.899 9.06841H130.344C130.422 9.06841 130.474 9.10756 130.474 9.19889V23.8126C130.474 23.8909 130.5 23.9692 130.566 24.0214C130.618 24.0867 130.697 24.1127 130.775 24.1127H133.089C133.167 24.1127 133.246 24.0867 133.298 24.0214C133.364 23.9562 133.39 23.8909 133.39 23.8126V9.19889C133.39 9.12061 133.429 9.06841 133.52 9.06841H138.149C138.227 9.06841 138.305 9.04232 138.358 8.97708C138.423 8.92488 138.449 8.8466 138.449 8.76831V6.83721C138.449 6.75892 138.423 6.68063 138.358 6.62844C138.305 6.5632 138.24 6.53711 138.149 6.53711Z" fill="#ffffff"/>
<path d="M168.859 6.53711H157.537C157.458 6.53711 157.38 6.5632 157.328 6.62844C157.262 6.68063 157.236 6.75892 157.236 6.83721V23.7996C157.236 23.8779 157.262 23.9562 157.328 24.0084C157.38 24.0736 157.458 24.0997 157.537 24.0997H168.859C168.937 24.0997 169.015 24.0736 169.068 24.0084C169.12 23.9431 169.159 23.8779 169.159 23.7996V21.8946C169.159 21.8163 169.133 21.738 169.068 21.6858C169.015 21.6336 168.937 21.5945 168.859 21.5945H160.282C160.204 21.5945 160.151 21.5553 160.151 21.464V16.6232C160.151 16.5449 160.191 16.4927 160.282 16.4927H166.048C166.126 16.4927 166.205 16.4666 166.257 16.4014C166.322 16.3361 166.348 16.2709 166.348 16.1926V14.2876C166.348 14.2093 166.322 14.131 166.257 14.0788C166.191 14.0267 166.126 13.9875 166.048 13.9875H160.282C160.204 13.9875 160.151 13.9484 160.151 13.857V9.15975C160.151 9.08146 160.191 9.02927 160.282 9.02927H168.859C168.937 9.02927 169.015 9.00318 169.068 8.93794C169.12 8.88574 169.159 8.80746 169.159 8.72917V6.82416C169.159 6.74587 169.133 6.66759 169.068 6.61539C169.015 6.5632 168.937 6.53711 168.859 6.53711Z" fill="#ffffff"/>
<path d="M190.207 6.53711H187.893C187.815 6.53711 187.737 6.5632 187.684 6.62844C187.632 6.68063 187.593 6.75892 187.593 6.83721V23.7996C187.593 23.8779 187.619 23.9562 187.684 24.0084C187.75 24.0736 187.815 24.0997 187.893 24.0997H190.207C190.286 24.0997 190.364 24.0736 190.417 24.0084C190.469 23.9431 190.508 23.8779 190.508 23.7996V6.83721C190.508 6.75892 190.482 6.68063 190.417 6.62844C190.364 6.5632 190.299 6.53711 190.207 6.53711Z" fill="#ffffff"/>
<path d="M76.415 23.8779C76.415 23.8257 76.402 23.7865 76.3889 23.7474L70.9111 6.78502C70.8588 6.61539 70.7542 6.53711 70.5842 6.53711H67.4466C67.2766 6.53711 67.172 6.61539 67.1197 6.78502L61.6681 23.7474C61.6288 23.8648 61.6419 23.9562 61.6942 24.0084C61.7465 24.0736 61.825 24.0997 61.9165 24.0997H64.4266C64.5965 24.0997 64.7011 24.0214 64.7534 23.8518L68.9239 10.2166C68.937 10.1514 68.9631 10.1123 69.0023 10.1123C69.0416 10.1123 69.0546 10.1514 69.0808 10.2166L73.3035 23.8518C73.3558 24.0214 73.4604 24.0997 73.6304 24.0997H76.1405C76.3235 24.0997 76.415 24.0345 76.415 23.8779Z" fill="#ffffff"/>
<path d="M249.065 6.78502C249.013 6.61539 248.908 6.53711 248.738 6.53711H245.6C245.43 6.53711 245.326 6.61539 245.274 6.78502L239.822 23.7474C239.783 23.8648 239.796 23.9562 239.848 24.0084C239.9 24.0736 239.979 24.0997 240.07 24.0997H242.58C242.75 24.0997 242.855 24.0214 242.907 23.8518L247.078 10.2166C247.091 10.1514 247.117 10.1123 247.156 10.1123C247.195 10.1123 247.208 10.1514 247.235 10.2166L251.457 23.8518C251.51 24.0214 251.614 24.0997 251.784 24.0997H254.294C254.477 24.0997 254.569 24.0214 254.569 23.8779C254.569 23.8257 254.556 23.7865 254.543 23.7474L249.065 6.78502Z" fill="#ffffff"/>
<path d="M217.884 16.4536C217.871 16.4144 217.871 16.3883 217.884 16.3492C217.897 16.31 217.923 16.297 217.963 16.297C219.022 15.9839 219.845 15.4097 220.433 14.6008C221.035 13.7918 221.322 12.8001 221.322 11.6519C221.322 10.6472 221.1 9.75996 220.669 8.97708C220.237 8.1942 219.623 7.59399 218.839 7.17646C218.054 6.74587 217.139 6.53711 216.119 6.53711H209.203C209.125 6.53711 209.046 6.5632 208.994 6.62844C208.929 6.68063 208.903 6.75892 208.903 6.83721V23.7996C208.903 23.8779 208.929 23.9562 208.994 24.0084C209.046 24.0736 209.125 24.0997 209.203 24.0997H211.517C211.596 24.0997 211.674 24.0736 211.726 24.0084C211.792 23.9431 211.818 23.8779 211.818 23.7996V9.1728C211.818 9.09451 211.857 9.04232 211.949 9.04232H215.727C216.538 9.04232 217.178 9.29023 217.675 9.77301C218.172 10.2558 218.42 10.8951 218.42 11.678C218.42 12.4609 218.172 13.1002 217.675 13.57C217.178 14.0527 216.524 14.2876 215.727 14.2876H215.086C215.008 14.2876 214.93 14.3137 214.877 14.3789C214.812 14.4442 214.786 14.5094 214.786 14.5877V16.8972C214.786 16.9755 214.812 17.0538 214.877 17.106C214.943 17.1712 215.008 17.1973 215.086 17.1973H215.269C215.269 17.1973 215.361 17.1843 215.374 17.1973C215.4 17.2104 215.413 17.2886 215.413 17.2886L218.433 23.8648C218.499 24.0214 218.616 24.0867 218.786 24.0867H221.205C221.388 24.0867 221.479 24.0214 221.479 23.8909C221.479 23.8518 221.466 23.8126 221.427 23.7344L217.884 16.4536Z" fill="#ffffff"/>
<path d="M103.7 16.4536C103.686 16.4144 103.686 16.3883 103.7 16.3492C103.713 16.31 103.739 16.297 103.778 16.297C104.837 15.9839 105.661 15.4097 106.249 14.6008C106.837 13.7918 107.138 12.8001 107.138 11.6519C107.138 10.6472 106.916 9.75996 106.484 8.97708C106.053 8.1942 105.438 7.59399 104.654 7.17646C103.87 6.74587 102.954 6.53711 101.935 6.53711H95.0187C94.9403 6.53711 94.8618 6.5632 94.8095 6.62844C94.7442 6.68063 94.718 6.75892 94.718 6.83721V23.7996C94.718 23.8779 94.7442 23.9562 94.8095 24.0084C94.8618 24.0736 94.9403 24.0997 95.0187 24.0997H97.3327C97.4112 24.0997 97.4896 24.0736 97.5419 24.0084C97.6073 23.9431 97.6334 23.8779 97.6334 23.7996V9.1728C97.6334 9.09451 97.6726 9.04232 97.7642 9.04232H101.542C102.353 9.04232 102.994 9.29023 103.49 9.77301C103.987 10.2558 104.236 10.8951 104.236 11.678C104.236 12.4609 103.987 13.1002 103.49 13.57C102.994 14.0527 102.34 14.2876 101.542 14.2876H100.902C100.823 14.2876 100.745 14.3137 100.693 14.3789C100.627 14.4442 100.601 14.5094 100.601 14.5877V16.8972C100.601 16.9755 100.627 17.0538 100.693 17.106C100.745 17.1712 100.823 17.1973 100.902 17.1973H101.072C101.072 17.1973 101.163 17.1843 101.176 17.1973C101.203 17.2104 101.216 17.2886 101.216 17.2886L104.236 23.8648C104.301 24.0214 104.419 24.0867 104.589 24.0867H107.007C107.19 24.0867 107.282 24.0214 107.282 23.8909C107.282 23.8518 107.269 23.8126 107.229 23.7344L103.7 16.4536Z" fill="#ffffff"/>
<path d="M9.42605 7.08507C8.91618 6.81106 8.36709 6.62839 7.77878 6.49791H7.7657C7.73956 6.49791 7.68726 6.48486 7.68726 6.48486H7.66112C7.58267 6.48486 7.50423 6.51096 7.45194 6.5762C7.39964 6.64144 7.36042 6.70668 7.36042 6.78497V7.2025V8.5334V8.89874C7.36042 9.00313 7.38657 9.05531 7.45194 9.10751C7.49116 9.14665 7.53038 9.1597 7.63497 9.1597C7.63497 9.1597 7.68726 9.1597 7.70034 9.17275C8.05332 9.25103 8.32787 9.52504 8.58934 9.786C9.19072 10.4123 9.49142 11.2343 9.49142 12.2521V12.8131V18.3716C9.49142 19.3893 9.19072 20.2113 8.58934 20.8377C7.98796 21.464 7.19047 21.7771 6.19688 21.7771C5.22943 21.7771 4.43194 21.464 3.83056 20.8377C3.22917 20.2113 2.92848 19.3893 2.92848 18.3716V12.8131V12.2521C2.92848 11.2343 3.22917 10.4123 3.83056 9.786C4.09203 9.52504 4.36657 9.25103 4.71956 9.17275C4.73263 9.17275 4.78493 9.1597 4.78493 9.1597C4.88952 9.1597 4.92874 9.14665 4.96796 9.10751C5.03333 9.05531 5.05947 9.00313 5.05947 8.89874V8.5334V7.2025V6.78497C5.05947 6.70668 5.03333 6.62839 4.96796 6.5762C4.90259 6.52401 4.83722 6.48486 4.75878 6.48486H4.73263C4.73263 6.48486 4.68034 6.48486 4.65419 6.49791H4.64112C4.05281 6.61534 3.50372 6.81106 2.99385 7.08507C2.0264 7.58089 1.29428 8.29853 0.784415 9.22494C0.261472 10.1513 0 11.2082 0 12.4087V12.8131V18.4238C0 19.9112 0.418355 21.1639 1.25506 22.1946C2.09177 23.2124 3.2161 23.8648 4.62805 24.1518C4.70649 24.191 4.75878 24.2301 4.75878 24.3084V26.4222C4.75878 26.5005 4.78493 26.5788 4.8503 26.631C4.90259 26.6832 4.98103 26.7223 5.05947 26.7223H7.3735C7.45194 26.7223 7.53038 26.6962 7.58267 26.631C7.63497 26.5657 7.67419 26.5005 7.67419 26.4222V24.3084C7.67419 24.2301 7.71341 24.1779 7.77878 24.1518C9.2038 23.8648 10.3281 23.2124 11.1648 22.1816C11.9885 21.1508 12.4068 19.8982 12.4068 18.4238V12.8131V12.4087C12.4068 11.2082 12.1454 10.1383 11.6224 9.22494C11.0995 8.29853 10.3673 7.58089 9.42605 7.08507Z" fill="#ffffff"/>
<path d="M284.899 9.25096C284.376 8.3376 283.644 7.61996 282.716 7.12414C282.206 6.85013 281.657 6.66746 281.069 6.53698H281.056C281.029 6.53698 280.977 6.52393 280.977 6.52393H280.951C280.873 6.52393 280.794 6.55002 280.742 6.61526C280.689 6.66746 280.65 6.74574 280.65 6.82403V7.24157V8.57246V8.9378C280.65 9.04219 280.676 9.09438 280.742 9.14658C280.781 9.18572 280.82 9.19876 280.925 9.19876C280.925 9.19876 280.977 9.19877 280.99 9.21182C281.343 9.2901 281.618 9.56411 281.879 9.82507C282.481 10.4514 282.781 11.2734 282.781 12.2911V12.8522V17.4451V18.2671C282.781 19.3371 282.467 20.1982 281.827 20.8506C281.186 21.503 280.35 21.8292 279.291 21.8292C278.245 21.8292 277.408 21.503 276.781 20.8506C276.14 20.1982 275.826 19.3371 275.826 18.2671V17.4451V16.049V12.8522V12.2911C275.826 11.2734 276.127 10.4514 276.728 9.82507C276.99 9.56411 277.264 9.27706 277.617 9.21182C277.63 9.21182 277.683 9.19876 277.683 9.19876C277.787 9.19876 277.826 9.18572 277.866 9.14658C277.931 9.09438 277.957 9.04219 277.957 8.9378V8.57246V7.24157V6.82403C277.957 6.74574 277.931 6.66746 277.866 6.61526C277.8 6.56307 277.735 6.52393 277.656 6.52393H277.63C277.63 6.52393 277.578 6.52393 277.552 6.53698H277.539C276.95 6.65441 276.401 6.85013 275.892 7.12414C274.95 7.61996 274.218 8.3376 273.708 9.25096C273.185 10.1774 272.924 11.2342 272.924 12.4347V12.8392V16.0359V17.4321V18.1627C272.924 19.3892 273.185 20.4592 273.721 21.3986C274.244 22.3381 275.002 23.0557 275.97 23.5646C276.937 24.0735 278.062 24.3344 279.317 24.3344C280.585 24.3344 281.709 24.0735 282.677 23.5646C283.644 23.0557 284.389 22.325 284.925 21.3986C285.461 20.4592 285.736 19.3762 285.736 18.1627V16.0359V12.8392V12.4347C285.671 11.2342 285.409 10.1774 284.899 9.25096Z" fill="#ffffff"/>
<path d="M250.699 3.47076V2.23121V2.13987V1.6571V0H249.052V1.6571H243.652V2.23121V3.47076V3.69258H250.699V3.47076Z" fill="#ffffff"/>
</svg>
